<mxfile host="app.diagrams.net" modified="2023-10-11T04:20:10.081Z" agent="Mozilla/5.0 (Macintosh; Intel Mac OS X 10_15_7) AppleWebKit/537.36 (KHTML, like Gecko) Chrome/117.0.0.0 Safari/537.36" etag="XOofa_j6DBvsGkzHA0TT" version="22.0.4" type="github">
  <diagram name="第 1 页" id="b-fnQxWHQPpzlU27791m">
    <mxGraphModel dx="954" dy="617" grid="1" gridSize="10" guides="1" tooltips="1" connect="1" arrows="1" fold="1" page="1" pageScale="1" pageWidth="827" pageHeight="1169" math="0" shadow="0">
      <root>
        <mxCell id="0" />
        <mxCell id="1" parent="0" />
        <mxCell id="JUDbLiN2Od7CmGKuxI0P-13" value="" style="rounded=1;whiteSpace=wrap;html=1;" vertex="1" parent="1">
          <mxGeometry x="720" y="40" width="480" height="520" as="geometry" />
        </mxCell>
        <mxCell id="JUDbLiN2Od7CmGKuxI0P-9" value="" style="rounded=1;whiteSpace=wrap;html=1;" vertex="1" parent="1">
          <mxGeometry y="40" width="480" height="520" as="geometry" />
        </mxCell>
        <mxCell id="JUDbLiN2Od7CmGKuxI0P-4" style="edgeStyle=orthogonalEdgeStyle;rounded=0;orthogonalLoop=1;jettySize=auto;html=1;" edge="1" parent="1" source="JUDbLiN2Od7CmGKuxI0P-1" target="JUDbLiN2Od7CmGKuxI0P-2">
          <mxGeometry relative="1" as="geometry" />
        </mxCell>
        <mxCell id="JUDbLiN2Od7CmGKuxI0P-1" value="Search Head" style="shape=image;verticalLabelPosition=bottom;verticalAlign=top;imageAspect=0;image=data:image/png,iVBORw0KGgoAAAANSUhEUgAAAVIAAAG0CAYAAABgyK9wAAAACXBIWXMAAA7DAAAOwwHHb6hkAAAAGXRFWHRTb2Z0d2FyZQB3d3cuaW5rc2NhcGUub3Jnm+48GgAAIABJREFUeJzt3XecnWWd9/HPTCa9kgDSQlPUNYoNsNCWLkgVBKOrrrqgLMquHXRtqI/4sIKIj6LISxAWXQIICBIQRIqNYpAiGkhCSCGFEFJJnXn++M285syZMzPn+l13P9/363VDZnKu677ukzm/ufrVRrp2Az4FnA6MTvleIiL1NgH/C5wHPJ3WTdpSyvflwOeADwHDU7qHiEizNgO/AL4FPJl05kkH0tcDXwZOBNoTzltEJFYncB3wdeDxpDJNKpDuCnwR+AgwLKE8RUTS0glcD5wDzI3NLDbojcGqylcD+6FaqIiUQxswDfgoMAH4PbAlJjOv/YArgVdH5CEiUgRzgX8F7vMk9tRI27F+0CuB7T03FREpmG2A9wMjgHuBrpDEoTXSkcBPgemB6UREymImcBqwutkEIYF0CvBL4MDAQomIlM2jwHHAs828uNlAOhmr7k5zFkpEpGzmAQcAi4d6YTOj7GOAm1EQFZHWsgdwB9YaH9RQgbQDa87vn0ChRETKZhpwK1ahdPsWNnqVxPUC8Hm05l5E0jUCOANYSnLx60fewhyCTVCNLcBG4GJseoGISFbGA18F1pNMMA2erbQdsCSBG98A7BJ6cxGRBE3FYlFsPFvZnVfTfhx5w4XAKZ4nFhFJybHAM8TFtmuavdnriWvSXwmMdT+qiEh6xmF7g3jjWyfwtmZudFfEDT4b+5QiIhk4B4tZnlj3R4aYg7+/M+Mu4KzEHlFEJH2fwB/vDh0s4xnOTL+R4MOJiGTlfHwx75cDZbgrth1/aIZ3on1IRaSc2vF1Z27FVj71c54jszUETgcQESmYXYG1hMe/rzfK7HFHRl9I5bFERLL1ZcLj32P1mbzckckKbCqBiEjZjQWWEx4H94Levs0THDf+IVYdFhEpu3XYQqRQx0FvIPVs1jzTkUZEpKg8Ma1P7HySsOrsJmCUv7wiIoUzmvCZS0/0JO7AAmNI4qa23xcRKZlFhMXCjcCwdmAHYHjgzVYkU2YRkUJ5PvD1I4Dt24GJjpstc6QRESm65Y40E7yBNDRqi4iUgSe2TWwHJjgSrnSkEREpOk9sm+Stkb7kSCMiUnSe2OZu2iuQikgVeWLbxHZ8u9lvcKQRESk6TyAd145vYr1qpCJSRZ5K4sh2bB5UKAVSEakiTyAd0U74ZHxQIBWRavLEtuHtwMiMbiYiUnSe2DbC27Tf6EgjIlJ0mfaRbnGkEREpuq2ONCO8TXsFUhGpIk9sczftFUhFpIoUSEVEImUaSD39CCIiRbfZkWZkO7ZDfijVSEWkijyVxI52YJgjoQKpiFSRJ7a1K5CKiPTyxLZh7fQeyZz2zUREis4dSFUjFRExmQZSjdqLSBW5+0jVtBcRMZn2kapGKiJVlGnTvtORRkSk6LocadzTnzw3ExEpOk9sc9dIFUhFpIrcgdTTR6pAKiJVlGmNVH2kIlJF7j5S1UhFRIynkqg+UhGRGhpsEhGJpMEmEZFIrj7SDqAto5tJMY0HdgG26b4mA6OBccDwBq9fjx3HvQZYWXMtwHcmuEiRePpI2z2744MCaRlNAfYB3gy8CdgT2A0LnElZjgXUecAj3dcsYFGC9xBJkzu2PdOdOOSaFFdWyUA7cADwDeAhbH+E0H/npK7ZwPeB47EasEhRbUP4z/c88AXSCZk8knjsB1yE1QLzCpyDXRuBm4H3YF0IIkUyCWcgne9IqFpFsUwAzgIeI/9AGXKtBq4A9k38HRHxmUj4z/Ez4Auk4zJ5JBnKLsB3sYGfvINi7PV74FR8p9qKJGU8zkD6rCPh2EweSQayB3AZ1kzOOwAmfc0DPohvfrNIrHGE/8zOBxtlDU2ovq18TAHOx6YZ5R3w0r6eBN6Nb3qeiNdYMgyko7J5JunWAXwKWEX+AS7r635g7/i3UKQpYwj/GX0WfKO7I7J5JsHmfT5I/gEtz2szcDEa5JT0jcYZSBc6EiqQpm80cCH5zv8s2jUfOCTmTRUZwkjCfy4XgK9GqpHVdO0D/I38A1cRr63At9Evc0nHCMJ/Jhe2AYuBHQNv1oFOEk3L2cAF5BMongeew5oqK4AN2Dr6WlNqrl2AXcnnF+tfgNOAp3O4t1TXcGBTYJpFWmtfHOOBn2BzKbPwD2zu5gNY7fdx+gfNZgzH1uzvja3hfzOwP+n3Z74J+DO2Quo3Kd9LWocntrWB1UBCq7KakpKs3Ul/VdJK4OfA+4DtU36eDuBtwJeAh1N+ri3AJ1N+Hmkd7YT/DC4CXyCV5LwVWEI6QWYDcC1wLI23xMvKHsA5WC04rYD6YzSJX+K1Ef6ztxjCP8TqG03O8aQzuX4+8FlsJ5siaQMOBGZgNcmkn/taNAgl8UJ/7p6D8EC6JaunqbjpWKd2koHkcWwApgyzKl4O/JDkl7nOREuYJU4njkC6NDDR5qyepsI+QrLzQ5/C+j49x8bkbQ/gZyT7ftyNljGLX+jP4hKAZYGJNmb1NBV1Csk1a18CvopNIi67NwJ/ILlgejvVeF8ke6GfT1cg3ZDV01TQiViNPolA8VvgFdkWP3XtwMewfUqTeI9+gQagJFxol9tSsHN2QmtBEu5tJDOwtAWbVlTGZnyz9gDuIZlgenHGZZfyC+23dwXS9Vk9TYXsQXhfdKNrEXBwxmXPSzvwZZLpOz0947JLuW0g7OdrGdiywJBE67J6mooYDzxBfDD4C7BzxmUvgqMI/xmtvzYCB2VdcCmt0JbjcrA11SGJ1mT1NBXxC+KD6E209vEur8BmJsS8h8tozV9EEm4dgYHUM9+wK5GitoZPYPM6Y/wIO9iudiHEdthofVHni3YCZyaY39NYH/PN3f/32A64CjgcK5/IQEJjXBvAC4RF31UJFbbq9iZ+svlF9N/XYALF3+g5rbnGY7E5ojFlOzelskl1hB4m+TyEB9IXs3qaEhsBzCLuA//NBvmOwqY95R0o8wqkYEdB3BlRtk3AfimWT8ovdPrdCrBdgUISebZaazXnEReILmiQZwdwY2S+VQikYDXTP0WU7zHy3cRFii30bLQVYDXM4EQyoL0Inz5Re11B/+Z8G3B5RJ5VC6RgG0vHnCKgJr4MJDQmvuBJ9HxWT1NSd+D/cM+g8UqciyLyrGogBZuf650atR7bOEWkXmh350oIr8Yuz+ppSugk/MHnIRpvtHFuRJ5VD6Rgo/DeZbe3ZFhOKY/QKaGuQLosq6cpmWH4J94vxs4/qvcewrf0KsKV9Q5hn48o68EZl1WKL7SV8yKEj1AtyeppSuZf8H2QN2G75Nd7C+ls+lzFQNoO3OUs6x/R0TnSV+hGTq5A+lxWT1Miw4DZ+D7IjQY9pmC73OcdEMsSSMFq9KFNsp7rpBzKK8UVui/GKgiffKpA2t8p+D7Av6P/Lk5twK+d+RXlymvz7w8HlLH2eiSPwkphuQLp2sBECqT9/ZnwD+867Bjjev/uyKtoV16BtA375eQp8xHZF1cKKjSQri7qWu1tgPNTyHcD1u+4AfsFshrr3/g78Kgzz4PxrZS5AGu+19oD+LazHGI/1Gdi/5ahP9ufAX6TeIma8z20m3+zziH9RUFdga9vg/CdThYnVNjBTA0sUxLXF51lvdlxr/nYUsdabZRj+WeRa6Q9LiW8zJ3Y/gh5CO1ea+VrqvM9DhF6IOiadjRi2aO+dtiMqcAxjnT/h/4bZJ8FHOLIS/r7MuHbPbYBZ6RQFimf4JhY5eMqQnRih6WFOoPwM4GWYqdm1toT+Jbj/tLYMqxWGmo6amKL1TJDtCmQmgcJX7E1HDtWOdQl9D/36iJae+PmNFxE+Im3k4FjUyiLVFubmvbmNkeaI4AdA9OsBX5Q972DgeMd95fBPQdc6Uj3waQLItWnQGp+7UjzHkeaGfQdcWwD/tuRjzTn+440R2LnbEnrcjXtQwNp6E2KbjnwcGCaUfhqkfU1pPcB+zjykeY8hu1bGmIkmlPa6jTY5HAn4Wf4HAlMDEzzDHBvzdcjgW8E5iHhfuxI45mJIdWhwSaH3znSeGosV9H3H+gUGq9skmTdQPig0ztRl5c0T4NN2GFqoTyB9Ka6rzVnMRurCF+xtAPwmhTKIhXV6oF0EXZeeohdgFcFplmKHYbXox37sIbWlMTnOkeatydeCqmqtqKutV8JfDSD+yxwpNnXkeZ2+vbDdtIbjCdigXUcNjd1FH13yh+LnUo6kAkMvihgEtn/sizaufG3Y90qIe/D24HL0ilOP2ejw/ialcXhm64B9S2ErStdlERJS+zrhK8Pnp5LSaXWY4T9mz2RTzGlABYT9rOySYNN4d7oSBM6BUeSd1fg61+JtQ5EhtRO+BSoqs0jDfXqwNevAOalURAJ8ofA13cA/5RGQaRy2tpRYAzRTuND6gYTOtlf0vGQI820xEshVaTpT4FeRvjuQLOGfolkYB52XnmI3VMohxRfcOVSgTTMzo40cxIvhXh0AX8LTLN7CuWQ6tHKpkCTHGk8G0ZLOkKnu2nlmTRFgTRM6Pp6UCAtktBAul0qpZCqUY00kCeQeib9SzpC/y0mp1IKqRxPIG3lUf7QgaYt9D+bSfKzMPD1U1IphVSOaqRhQs9nWpdKKcSr/oiXoWhCvjSjS4E0TOj7pdposYTuAeBZsCItSD8kYUKniml3p2LxbKYy2IYxUk2ueaSp36RCQgOjPoTF4vnZ3Zp4KaRqujxLRFt5Av/qwNePTaUU4hVacegENqdREKkUHX4XaE3g68ekUgrxelng6zekUgqpGleNtJWFBtKejZqlGHYIfP3aVEohRZdJH2krCw2kEL5blKRnp8DXL0ulFFJ0Oo45ZZ5AunvShRC3HQNfvzyVUkjRhdZI1bQP5PlgaeOL4nh54OuXpFIKqRzVSMOsxHa8D/GKNAoiwYYDewem0ckG0hTNIw33dODr35RKKSTUNMIH/rSXrDTFE0hbeR4pwFOBr98HvWdF4Dm0MPSXplSDa9Q+uGM19CYVExpIJwN7plEQCbJv4Ou7gL+mURCpHvWRhgsNpAD7J14KCXVU4OvnAavSKIhUTldH3iUYwBTghwGvXwl8NKWy1As99wfgGOBnSRek26gU8y6r/wCeq/l6GuGtgr847jsO2BUY3f318O7vgVVaajcGn0Rvl8947PhnsNVwPfvejqR3dVxH9+t68vog6W/T+BNgQsr3CHUm4QO+mdiCNWOavbI4OmNqYJkWZVCmHsOw+aQh5XuB3g9K0sYFlqXq14v03zf2XEc+Zzfx3tf7WobP6TmtIdSyDJ+n2Wtqqk9sng0s0ybNIw23lfCz6rcB3p5CWaS/e+m/Y9OxznxCHepII8UTHBPVR+pznyPNaYmXQhq5o+7r3YG3BuaxEng0MM04YL/ANFIN2iHfqf7D2ozp9PadSTo6gV/Wfe90wisMMwnfBPoAtP9sy9KEfJ8/Eb436TbASSmURXrNpG9/+XDgw458bnGkUbO+hamP1Gcz9qEN9ZGkCyJ9XFz39YmEb523GbjNce8DHWmkItS095vhSHMottJJknc3/btcPu7I53asjzTEaLQUuEo02JSh2/DN4/tC0gUROoFP133vMOAgR17XONLsg/pHW5kGmyKsA65zpDsBmyAuyfkZMKvue1935LMGuMmRTlPbWpz6SONc5kjTjk3clmSsA75Y971jgLc58roKWO9IpyXALU410ji/B55wpDsZOCThsrSqzwCLa74eBnzDkU8X8ANnGVZiS1I3OdNLyXmWLWZRg10BnBrw+pfSKkgTLgQud6S7GBug2JJscVrKzcCldd87C9+WeXfj+6UItu69x3hgW2wdfe1a+RH0Hs9duwbfy1NzDvVv9K77L4os1tm7YtxGwtaVzkuipBUyEquNeNYNfyKB+7fqWvtFWMCqNRWb3+vJ78gm32+pvnmE/ey8BHZ2twJpnM/g+/CuBfaKvHcrBtKtwBEN3osbnfk92NQ7La1CgTQnY7B+Os+H+E/E7QzVioG00WDdqRH5ndDUOy2tQoE0R2fh/yB/JeK+rRZIr6L/0S2vwLbP8+T3+6bfaWkVmQTSuVk9Tcl0YDsGeT7MW7ApOx6tFEjvof/gxyhsE2Zvnpq6JPVCA+l6UI00SYfi/0CvBF7puGerBNInsI1f6l0ekee1Tb7H0lrm4gikLwUmUo10cD/H/8H+O3YERYhWCKQLsH1F6308Is81wC7NvcXSYhRIC2A74o5ouJuwfUurHkifA17V4LlPw0bvvfl+ptk3WFqOAmlBxIwgd2Fb9DU7EbrKgXQ58NoGz3w44fOfa69ZpHeGlpSfAmmB/Ji4IHIjtgJmKFUNpCtpvEJpP/yT7ruw/Ua15Z0MJjSQrgOLpgqkyYsdTe4JpkM186sYSFcBb2nwrIcRF0S7gPOHeD9F5hAYSNuwQBrSJzeP8DPCW9XLgYcIH0CqdT9wPANvNtxB9Y4weRJ4vO57pwBXE7f2ezbwBvLdm0GKbw5hMW59z39UI03PCdjGwzG1qMdp7V9eH8Pm2sa8h53AwVkXXEopuEYK4YF0TlZPUyHnE9/cXYENsrSSUdjuTkl0F/ww47JLebkC6brARAqk4dqxpY2xwWAzdlTJsGyLn4s9sW6RJIJoF/BTtP+uNCc0kK4FBdKsDAduJZmg8Dtsy7iqOgnrE04qiPZcV9Iav4QkjgJpwY3BNslIIiisxPoOq1TL2hk7ByvpAFp7XY2CqQzuaRRIC28b/JubNLruB/bO9AmSNww4G5v2lGYQ7bl+jibky8BcgXRtYCIF0ng7YVN8kgoMW7E+wLKtHW/DpnbNIpsAWntdS3MLHqT1hAbSNaBAmpdtgQdINjisBy4BdsvwOTzasGlhsQsWYq8bsZkBIrUyCaRPZ/U0LWAc8BuSDxCbsFkCRdtrcxLwUfKpgQ503Q1MSPOhpXQUSEtoJDCD9ALFE8Cnya+W2o4dLHcN4XOWs7oewga6RACewhFI1wQmUiBN3jBswniawaIT60r4ElZTTbN/cE/gDOB/sR2c0n6umO30eq5l6CRRMQqkJXcmcdvDhVxrsWbthcD7sV2Vtgss73hgGnAi8F/YAE7ozjkx1wvd9/5XkgmmW4EraO3luBIeSFe3YYF0XMBN5mCHjaVpCuVa0nclNtk+CftjNbm8mprrgKXYPNXajVI2Y7XYiVif4vY0PvojK38ApgPPdn/9fmzmQhJzRLdiG5w8iW0s/bfu+z2SQN61JgPfAcYmnG+VnYktl07TU4TFuMLWSKcGlinvawvwiQSffwr+M9qrfm3Alsk2mgc6HQv4ad17Lhb4pjW4t9chhM/lbuUrixV9wTVSUCBN8rqYZFfNnEF2k9TLcD1E4x3za51KusG0C+t+SfKokkMp7kBc0a7CBtLQjXIVSAe/bibZptou3Xnm/Vx5XmuAc2l+NdLJ2BSwtMt1BTCiyTIN5XAUTJu5sgikodOfVoECaRrXw9jqpSQdh/Xb5f1sWV5bsCNbdnS8XyeTfs20C9tAJmbj7lpHEn70T6tdlQmkWaxsKnsg7cIGQZJeAz8C+BQ2GJT386V9/Yr4vsj3kcxo/lDXI8AOkWXt8Q4UTAe7FEgDVCGQdmHv7dEJvzdgXQefA5YU4BmTvDZiI+9J/gL6CPEnFDRzPY0dLZOEo7FBtbz/PYp4FTaQhg5mKJCGXZuxKRtpGAl8mGR3k8rjWgp8E18TvhnnZfQczwGvT6jM70TBtNFV2ECqPtJsrotJd+/QN3ff4/kCPGsz13psAv9xpL8LUzvp7GnQ6FoJHJhQud+Bgmn9lUUgDd3Y+UVQjTTL65fY5s5pGgkcA1xG8Zr+C7Cm+2mk/z7U25HwqX7eaz32CyIJx5PdarcyXEWskSqQ5nA9SHpN2HptwOuA/wCuxwbAsnrOTuwHcgbwceDVKT9rM75Dds+/GfhAQuU+gWymc5XhKmSNtA2LphMDbjKX5DrVBzKV3qV/VfQscCzwWA73fhk2mLMnsEfd/yc78lsBLMRqmwuwZZWPAH+le6JygeyD/SLLSidwFnYSaqyTsKXDrb4Z9a7Yz1maQs+1X1XU4xZWYCtUqmwn8gmkS7H+wkbGYl0Dk7ANj0dj6+o7sN+8G7Fm67ruPy/BpuqUxV+xco/M6H7twA+w9/GiyLx+CRxA8TftTlva6+w9uqCYTXuRtOS1qfT5WTycJCJ0B7OV7d1/EGkVebQCAD4PfCOne0uY4JjoCaRtoTcRKZC8AinAF7EBL32GKuhF1LSX1rEb2SwbHez6EenOKZY4oU37F1QjlVYzH1sIkKczgMtJdstFydlKVCOV1rIDdkxJnrXSLjSdqahcNdJQqpFK2S0BTif/gdZTsdpxUnuaSo5Ca6Rz8ymmSOK+Rv610i7g19i8XSmGeYT9+62A8CaOAqlURTtwA/kH0i5s/9WsFgrI4IKb9qBAKq1tNHAP+QfSLuA2VDMtguAaqaZgSKt7CdupaVbeBcG2zbsRC+5SIgqkIra5yjuwM7HydhQKpmXTpXmkImYZto/r4rwLgh2CdxMKpmXR5qmRhgZekbKYAxyCTY/K2xHATGBc3gVpQaGVxS417UX6mo3VCIuwXdtB2NQoBdOCUyAV6e8x4HC6p7Xk7EBsNH983gWRgamPVKSxR7CTPNfkXRBsQ+dbUM00K8Hdl6qRigzsT9iRMOvyLgjWzL8VO8VA0hVcWVQgFRncvdjUqLV5FwQLphqAKh4NNok04X7gaIoRTA/ABqBUMy0QBVKR5tyPzTMtQjA9EDsMT/NM06GmvUiK7sMGoIrQZ3oEtgJKa/Pz51rZJNLK7gVOpBjHUB+JgmkhqEYqEu5O4ASKEUyPwrYC1BZ8OVIgFfH5DVYz3ZB3QbCBMAXTHHVQzAn52wHXZHAfScdWbMpQ2u7A//O4FPgYcYNHdwAnYQM/eTevjwH+B5gObE4gv28B+ySQT9LeCyzPuxCNLCNsE9N5GZRpamCZdBXrSuKD3IzOyHLeTzJzMo/Cmvl5v+9dwHVYBSnWtti+A3k/T/01NYFnG8r8wDIt1eF30sr2x9axxwbT27GaaRGa+ScDPyc+mD6PdRksiy5R+Wj6k0igngnuscF0JsUJpqdgzfzYYDoHOz2gCNO9Ck2BVMQmuCexjn0m8C5gY3SJ4p0KXA0Mi8znAazfdWt0iSpM80hFzEEks1roNiyIbYouUbzTgMuIrzD9CvhkfHGqSzVSkV5JrRa6GQtiWQ26DeZDwCUJ5HMJcEEC+VSSAqlIXz3nJcUG0xuxPtMiNPP/HbgogXw+D1yVQD5Vo8PvRBo4Erie+AnutwLvoRjN/P8EvhCZRxdwOnBPfHGqRYffiTR2DMk082+kOCugvgl8KjKPjcDxwKPxxSksHX4nkqB3kMzSy9soztSo/wb+LTKP1dgvmgXxxakGBVKRwSW1jn0mxdjopA24FBsMi7EIC6YvRpeoAoq61n45NoIq5ZRV98+RGd0HYBK2Pj/GHViz+CZgTHSJ/IYBP8NqlrdF5PM48FayWbbZo5Dr7AGeI2xd6fx8iilSGQdiQSzvdevrgX9O91FLaQFh7+NiTcgXyd592OmkeR9bMhqrHb8p53KUnvpIRfJxL7Zr1OqcyzEBuAXYNedyFIlG7UVK5A/AocALOZdjR6yvdFLO5SgtNe1F8vUwNjMg79Hv12Cbqaty5YiJetNE8vcAVjNdkXM5jgbOzbkMRRDctAdYSNgI1bMJFVZE+nojtqFyniP5W7ANr1tZaExcqCWiIsUxC5satSTHMgwDvk/8PqYtRUeNiBTLk9hilDyP+HgDtmpJmqTBJpHieRw4hHxrpkfneO+y0fQnkYL6G3AwtqY9D7vldN8icM0jVY1UpJhmYzXThTncO4ljqstK059EKuYpbD181rNl8t6lqlQUSEWKbw52ON/cjO/ZqtS0F6mo+dik/awC3MMZ3acS2tF0JpGymA8cADyW8n22YhuZSJN0+J1IuSzBaqZp1hhvIt95rKWjpr1I+TwPHIbta5q0rcDXU8i3yjSPVKSkVmGH892ecL7fBR5JOM+W8AzatESkrEYAM0hmw5L7iD/krwoWE/a+zaP7PyGJdASrSLEMA64gLoj+GZiccbmLSoFUpEW1AV8BOgkPor8Axmdf5MJyBdK5gYkUSEWKazq2KqmZz/Ic4JR8illoCqQiwt7A94Cn6V9DXQZcC5wEDM+rgAUXGkjntmGBdI+AmywEpiZX5oa2w86PKbs1wLtSvsdo4OaU7yFhjgU25l2IbhOAbYEO7CiTvI8zqfcLYErA698LLE+pLD0WYwcCNmteR1oliTQKODzvQiQgi9Mhh1GN96pKirS7/GryP/J5MAcCOwW8flRaBamh45hFRLKmlU0iInFUIxURiaVNS0REIqlGKiLSV3BlUYFURKSv0LioPlIRkTrBcVGj9iIifWkeqYhIJFcfqWqkIiK9gmukHRRz+tNSYJ8M7pO2LRncYz3VeK+qZEPeBSiRownbPGVpWgWp4Ypxswnb6WRhEiUVESmo1YTFxH+oaS8i0pcGm0REImlCvohIpEzmkWqtvYhIDU+NVIFURKoskyWi6g4QkSrLZEK+AqmIVJlqpCIikTIZtVcgFZEqU9NeRCRSJhPyFUhFpMpUIxURieCZ3qkaqYhIDdc8eQVSEZFervimpr2ISC817UVEIqlpLyISyR1IPbs/aeMSEakiT0XRvbGzaqUiUkWZNe1j0omIFFlmTfuedCIiVZPZqD0okIpINalpLyISKbMJ+e6biYgUnJr2IiKRNNgkIhJJNVIRkUjuPtIs04mIFJma9iIikdS0FxGJlOk8Um1aIiJVlOk80uGem4mIFFymTfuRznQiIkWWadNegVREqijTUXsFUhGpIvfGzp5AOsqRRkSk6DJt2o9wphMRKbIORxr3YJNqpCJSRa4ZSRpsEhHp5amRarBJRKSGp0aqeaQiIjXcNVIPBVIRqSJ3H6ma9iIiRk17EZFImTaUfOnuAAALHElEQVTtNf1JRKpITXsRkUiZTshXIBWRKlKNVEQkkvpIRUQijfYk8gbScc50IiJFNtaRxr2N3iRHGhGRohvjSOMebFIgFZEq8tRI3U17BVIRqSJPjdQ9aq9AKiJV5O4j9VAgFZEqcjftPTXSMcB4zw1FRApsgieRt0YKsEtEWhGRItrJkcbdtAcFUhGpnp09iRRIRURMG7CDJ6G3jxRgN2c6EZEi2hnnUfMxNdLXRaQVESmaA53p3EtEAd7gTCciUkSHehPG1Ej3ACZGpBcRKYpJwHu8iWMCaRtwRER6EZGiOAP/rnZRTXuAd0WkFREpggnAJ2MyiKmRAhwHbBuZh4hInr6Ec9pTj9ga6Tjg3JgCiIjk6J+AsyPzcK1sqg+8nwD2jyyIiEjWRgBX03/uaHDl0lMj/StwV83Xw4EZwO6hNxcRydG3gDfVfe8u4NHAfLoAftf9h2avvwAvAxbVfX8OznWqIiIZOwnopG8MWwRsD8wiLCb+ztO0bwOWAtOBLTXf3xO4m8hOWxGRlL0ZuAqLZT22YDFtGeGD8F1gwS8k+tZWe88Z4O81ki8iRbQ78Bz949bna17zWIO/H+y6G8ID6eM1N2wDbmjwmkeAKUk9uYhIAnYD5tI/Xl1P39rpEw1ek3ggfaKucKOBBxq8TsFURIpiN2wcp9GYT/3xIk82eN1g12/p/k9IoicbFHJn4OkGr30YNfNFJF9vBhbSPz7NpvGO+H9v8NohA2lojfTvAxR2F+CpBq+fC0zzPL2ISKSTgXU0DqIDzTKa3eD1iddInxqk0DvTeOrAWuD0kKcXEYkwEriA/lOcelrKg53N1Kh1PWQgvSsw0ZwhHmAccMsAaWcCrxr6PRARcXsDA4+838zQuzw16ksd7LoLwgPpvCYeZBjwFWxuVn36TcCl2H6mIiJJ2QX4CY3jzhZsc5Jm5ojOa5B+yEB6Z2CiZwIe7GDg2QHy2QzchG3FNzIgTxGRWnsCFwPraRxr5gMHBeQ3f4B8Eg2kzwY+5Hjge8DWQfJcAfw/4DC0zFREmvMW4Foa10B7aqHfxWJQiAUD5DfQdWcbFkgPC7jJInxHMe+Ldf4e3MRrNwDLsUGqtcAqYA32xqzGgnKP+q97XjfQ12ux2vBAX4eqzz/GRuy3alUMx7/reJm0YUdVlM1IYEzehXCYDLyfwXeduxv4LDawFGoRgw9G1burA4uoIbybQT8I/DPwTqz/dN9BXjsKmOq8j4i0rgeArwK3ReTRNvRL+nDtRxq7q/6twH5Yn8X12OCTiIjXRuA64ACsuR8TRMER4zocNwmN1gO5r/vaBhtwOhSrTm+P7SA1OaH7iEh1vAAswXZpWozN4bwBWJngPVyBNKum/UBWApd3X7V6+p16+tlGY03+cd3fm1Tzmp7g3k7fI6Lr++jq+4TG0HfGwHj6/nKZSO/zNuoHm4BN9RpMbR4ieejExhkGsxUbb6j1Ir3xoT6PLdj4QI/6/v313d/rUT+WsKo7T7rv8WLN/zdjYxcvYeMlPeMYteVJU/A2ep4aaVZBoYve3zLLMrpnXmp/GQxkmyH+vv6XSKix9D9yIU1pDETFDhyG2oQtP/RqJjAMVdPqCT6SnFI17aVXMx+EJJsuIjKw4BppHoNNIiJFFhzjPIffKZCKSJW5AmkWaUREyqIU80hFRIpMTXsRkUiZDDZp1F5Eqkx9pCIikdS0FxGJpMEmEZEIbTi6L71BUcFURKrIFds8TXvQgJOIVJMnkLqa9t6biYgUnauSqEAqItIr06a9AqmIVJGa9iIikVQjFRGJlGmNVKP2IlJFGmwSEYmkpr2ISCR3016BVETEuJv2noQKpCJSRUMdr96QloiKiPTyxDbNIxURqeGKbR34aqSu6m/CtgcOA14F7IA9xwvAbOAe4JncSiYiZeUOpB55Nu3fAXwaC6KDlePvwI+Ay4B1GZRLRMrPHdtuxGpzIddukYX12BG42VHW+cAxOZRXRMpnN8JjzI1l6SN9LfAQcJwj7a7Ar4DPJVoiEaki94T8LNN57IX1ee4UkUc78G3g7ERKJCJVVcmVTWOxrofJCeV3IfC2hPISkeqp5DZ65wCvSTC/YdjgUxFmHYhI8WTatM9i1H57bHQ+adOAd6WQr4iUnyu2eeeRZlEj/QAweojXdAJ/Bh4BVmMj+28HXjFEutOBGbEFFJHKcTXtAW4gfLj/tfHlHdIfB7n/VuDH2ET8Rg4HHhgk/SZgQoplF5Fyei3h8fCGog42jQDeMMDfrQOOAM4AlgzwmjuB/YGrB/j74cAbYwooIpVUqcGmHYFRDb7/EvBO4LdN5LEZ6x64foC/H6r5LyKtp1KDTeMG+P7nsDmlzeoCzgSWNfg7Ne1FpJ57P9IiNu1XN/jek8APHHktB77W4PsbHXmJSLVVqmm/GGua17oUG6X3uBLrFqjVqJYqIq2tUktEtwK/r/ve7RH5rWuQ36yI/ESkmiq3RPSmmj93AnMj86tN/0wC+YlI9VSqaQ/wU2Blzdf1Tf1QtctCr8H3C0REqq1So/YAq4ALuv/cDrwsMr9p3f9fC3wvMi8RqaZKjdr3uIDevs39I/LZFdi3+8/nAUtjCiUilVW5pj3AFmA6toLpQxH5fA5r2t8KfCeBcolINVVq1L7WAuAorEZ6kCP9fsBHsVH/d+OfQiUi1Ve5UftajwLHAv8XWyffrMnYwNIF3enr55KKiNSqZNO+1h+AjwMnBqQ5G3gv8AWsm0BEZDAtcRzzQ91Xs76aUjlEpJoqXyMVEUlbpftIRUSyoBqpiEikyq1sEhHJWiVXNomIZElNexGRSBpsEhGJVNkloiIiWcm0aa/BJhGpIg02iYhE0mCTiEgkdx/pWke6UZ6biYgU3EhHmpfAdo7vCrzmAOOjiywiUhxjgX8QHg97Tt/gTkfiH6b+WCIi2bmU8Dh4S20Ghzsy6ALemepjiYhk40js9IzQGNjvLLkHHZksBrZN68lERDKwLRbLQuPfzEaZneLIqAvrFvBuEC0ikqcOfF2bXcCBjTJsBx5zZqhz4kWkjC7BX4Ec0InOTLuAC9GKJxEphzbgIvzxrl/faH3mD0Rkfjm+eVgiIlkZCfwUf5y7vpmbHIJv9KrnehjYK/JBRUTS8ErgL/jj26buPJpyRcSNuoDVwGeAEd6nFRFJ0Ajgs8Aa4mLbt0NuOgVYGnnDLmA2NhtAa/NFJA/tWAyaTXw8exLH8viTE7hxz/Uo8G4UUEUkG+1YzHmUZGLYFuCt3sJcmFAheq4ngA8Aw7wFEhEZRDtwHHH9oI2uTw1206GmK3UAdwEHOR5oMGuwCC8ikqQOkt9Q6X+AfxnsBc3M+9weuBd4VRIlEhEpkfuxdfgvDfaiZifQ74wF0z0jCyUiUhazgEOBF4d6YbODP4uwHaKe8ZdJRKQ0HgAOo4kgCmGj6POwDUzvcxRKRKQsrscWJq1sNkHodKTnsf6CawLTiYgU3VbgPGza1PqQhDGbjLwb2yV/SkQeIiJFMB/4IHCPJ3HMBPkZwOuBX0XkISKSp03YfPnX4QyikNy2dwcD5xMx819EJEOdwHXAF7DDPKMkvX/occDHgSNSyFtEJNZqbAu9S0gggPZIK9jtBZyO1VD3AnZI6T4iIoNZCTyFrbm/BfgNgQNJzciq1tizbGsSMA47P3ocMIa+G0GPp+/5T5NqytjW/XV9nj1GdudXayLh/cDDgAmBacB2hRntSFf/zGXlfd8kW+uBjY50TU8FqrERX9BahTW9AdYCmxv8eR3Wv7kVq2WuxJaer+n+eg2wAJtplLr/D1RVibERgFj7AAAAAElFTkSuQmCC;horizontal=1;fontFamily=Georgia;fontStyle=2;fontSize=16;" vertex="1" parent="1">
          <mxGeometry x="300" y="120" width="100" height="129" as="geometry" />
        </mxCell>
        <mxCell id="JUDbLiN2Od7CmGKuxI0P-2" value="Indexer" style="shape=image;verticalLabelPosition=bottom;verticalAlign=top;imageAspect=0;image=data:image/png,iVBORw0KGgoAAAANSUhEUgAAAVAAAAG0CAYAAABkPX9NAAAACXBIWXMAAA7DAAAOwwHHb6hkAAAAGXRFWHRTb2Z0d2FyZQB3d3cuaW5rc2NhcGUub3Jnm+48GgAAIABJREFUeJzt3Xm4JWVh5/FvLzRNN4sNiICyCAoIOBMliY64MEKMQQkZlGeMcTCaEXdbRw1xewTNGMw4KhKNqEFFjQsqIrjiEDQYJghBlAZ0WBqVRfat6b3v/PHem3u4fe699b6n3qo69X4/z1MPTfepOvWeU/U7b9W71ALyWAA8HzgJODzTe0jSfC4HPgJ8Adhc98YX1Ly9JcCLCMF5cM3blqRU1wF/B5wBrKtro3UF6DbAXwDvBB5d0zYlqW43A38N/AOwcdSN1RGgfwx8ENi/hm1JUhOuB94CfGOUjYwSoCuAU4ETR9kBSWrR+cCrCDXTaKkBegTwRWD3xPUlqSvuAF4M/CB2xUWRr18AvA34DLBj7JtJUgctB/4M2ARcHLNiTA10MfAx4BUxbyBJY+TzwMup2MBUNUC3B74GPCdxpyRpXHwbOB54aL4XVgnQZcC3CPc9JakE/4cwGGjOPqML59nIMkIr1RH17JMkjYUjgS8T+rjPaq5GpEXAOXjZLqlMBwJ7AOelrHw6MFHTcinw7PRySFJlRwJXUl9+vTZ2B15Z0xtfAxxH/WPuJWkuiwnBdyej59gGIiZFOpTQ+jTKG94FvHqyEJLUlhXAR4EtjJZp1xN6I81pW+CqEd/oa8CuIxZakup0BHAjo2Xbx+d7k3eMsPFNwMrRyylJWexKGGmUmnFbgN+dbeN7A2sSN7wOeEGNBZWkHJYC55Ieoj+cbcNnJW5wM6GhSJLGwVLgn0gP0WNmbvBQQhCmbOxNWYooSfnsCFxLWub9ZObGUqu052MXJUnj6Ymk9zg6emojT03cwF3Y2i5pvP0lafl3ydQGLkzcwGtyl0ySMltC+qX8H5C44mrsJC+pH44lLQf/mcQV39hIsSQpvwWEYecpWRi9wnrC8ChJ6ovU+T+iVzi/oQJJUlN2IlQOo/JwvgmVh7m0jr2VpA65D7godqWUAL0lYR1J6rrvxq5ggEpScEXsCikBel/COpLUdT+LXSElQOd91KckjaF7YldICdC1CetIUtdNECZVqiwlQOd8TrIkjbFNMS+2BipJ0zbGvNgAlaRp2Wug6xPWkaRxkD1Ao6q4kjRGsgfoloR1JGkcZA3QqCZ+SRozBqgkJTJAJSmRASpJiQxQSUpkgEpSoqxj4Q1QSX02EfNiA1SSpmUNUDvRS+oza6CSlMgAlaREBqgkJTJAJSmRASpJiQxQSUpkgEpSIgNUkhIZoJKUyACVpEQGqCQlMkAlKZEBKkmJDFBJSuR0dpKUKCrjFkduPCqdpQiLgX2BvYGdgQWTf//g5HILcDOwro2dUzGiMs4AVRsWAAcBh08uTwEeB2xTYd1fAz8HfgZcCvwIuCvPbqpABqg66ZHAc4GjgaOAXRO3s9fkcvTk/28BrgIumlwMVI0iOuMmIpZv17ab6ruFwO8B7wb+ldAAGXOspS6bgSuBDwN/AqzIXVD1yreIO96iXvyt5sqhMbQ9cAxwBuF+ZROBOd+yCbgMOBk4jOl7q9Iw55MxQM9vrhwaE/sBK4ELgA20H5jzLasJAX88IfClQedhgCqjJcBzgI8RGnTaDsRRljWEE+ZVhNZ/6VwyBuh5zZVDHbKMcGl+FnAP7QdfruV64DRCI1eVHgHqHwNUtXg08Grge8B62g+3ppc7CT8YLwCWj/hZanycQ8YA/WZz5VALpu5nXkzoHtR2iHVlWUu4x7sS2DP509U4yBqg5zZXDjVgIaFl+mTgGtoPqnFYNjPdqv+E2A9cnfd1DFDNYTvCPb7TCMMj2w6kcV+m7ps+nfi5JdQ9X8MA1Qy7Ai8DvkFoeW47dPq63Ax8nDDiattK34y65mwivnOHcvbX/sCxk8vhwKJ2d2devwZ+CPwbcAVwLXAHsBR4PPAk4BnA04ADW9rH+ewJvHJyuR/4LqHS8W3g3hb3S9VFZ1zML+w5te2mcjgMeC9hoo22a2PzLb8FvgScSAjIGLsBfwqcyXj0Rd0AfB94LWEcv7rrK8R9twboGFsMHAl8BLiJ9oNiruUewi2ENwCHUu+QyidMbvc84IEOlHWuZQthboCTiP/hUH5ZA/TrzZVDs9iO6fHmt9F+IMy1DHZMX5LjwxhiEaEmfhLjMbx0FXAqoRHKcfrti7oHSuSLv9ZcOTRgF+AEwq9jl2tYU/0lT6I79yl3Jox7P4Pu9zpYjS36bTNAe2JfxmOSjtsII3aOB3bI8UHUaKrf60mEwQJNTbGXstxO+FyPwWGlTcoaoF9trhxFOoTpk7urI4EGO5KP+/RwjyQEf9fH+N/F9I+Uw0rzMkDHyGLg2YTLttW0f6LOtjxIuPp4KeF2Qh8tBo4A/pYww33bn/lsy33AFzFMc8kaoGc3V47eWgYcB3yWULNo+4ScbbkN+CTwfEJfzNLsQ+h29F3Cg+za/j6GLQ8RejacgDPv18UA7aCpkUDnEg76tk+82ZZrCS3CT8NGjEE7AC8EPkPo3N/29zRsmepr+ipg9yyfQhmyBuhXmivH2JtqOT+P7jYCDd7PPDjLp9A/gxOwXEb73+F83+sBOT6EHssaoF9urhxjaU/gdcA/EZ7F0/aJNGx5iBDq/x14VJ6PoSiPA94EXAhspP3vd9hyOfAOnD2qiqwB+qXmyjE2HsN0d6OunkB3Ea4eTqD7XY3G2XK6P3P/KpyKby4GaAP2Bd4MXEJ3uxvdRHi077Po/kQifbQNYZjt6cCvaP94GLb8FHg7oRatwADN5NGEPpo/of0Df7blF8DfEJ7HPs79M/tmAd2f6OVywvH92EyfwbjIGqBfbK4cnbCE0OXoW3T3nuaVwLsJE3RoPOxPuIL5Ed08ri4lTM7S1z6/c8kaoP/YXDlatQ3hfuENtH8wD1um7mMdlKn8ak6X5zlYT2hwPJ4w0KAEX8UAHclBhIBq++AdXDYBFwGvJzRaqZ+WE54CehbdG2RxMWX02shaA/1Cc+VoxZPpTuvpeuA7wCsIY7ZVlsWEaQD/nu5MW3gN/Q9RAzTRwbQ/yuQhwpyrLwEekbe4GiMLgWcS5kxou0X/CmD7vMVtVdZL+M83V45G7Ud4IFgbB+R9hFsjL8TJITS/BcBTCJOeXE87x+w59HeorwEaaSfg/9HsAXgn8A/A8/DpjRrNkwjdo66m2WP4LU0UrgVZA/RzzZWjMZ+imQPuZuCjhM7VpbRoqlkHA++kmb6m6wltBn2TNUDPaq4cjXgcefvh3UK4b+XsRmraocBfA9eR7/j+Gc0966opWQP0s82VoxHvof6D6m6mH8VgTVNdcAih33COfs2nNFeMRhigEa6gnoPoPkJoHo3Pr1F3LSTMuv9xwn34Oo79DYT7sH1hgFa0PaNdvq8nPObiOMqcsV3jbRvCVdI3Gf021k8b3vecsgboZxorRn6Hk3aw/IIwTnjX5ndZymJPQkv+/aSHaF8mr8kaoJ9urhzZvZT4g+QcnBpO/bUH6Q837EsjaVSA9qXQKfZPWOfThMclSH10K/D+xHX7UgONEhugE1n2oh17JaxzVe17IXXLD9regZZF/RCUXANNuYd5W+17IXXLdYQG0lh9yZKoSmLJNdDdIl9/L2GyD6nPJgiX8rH6cgmftQbalw8J4mfbTjmopHF0e8I6fcqGyvpS7U4RO/PR3Vn2QuqetQnrGKCFiZ3TcF2WvZC6J+VYN0ALs13k6w1QlcIArajUAF1KfIf4lJZJaRwZoBWV2oi0LGEda6AqRckBaj/QClIenWENVKWwEakia6DVGaAqhR3pK+pLoWMZoNLsUuZ76EvlKkqpAZpyCe8kIipFn0YcxnIkUgUpT8Is+aBSWbYkrNOXypiX8BWkPKso5aCSNF5sha8gZVJka6AqRcqx3per0ygGaHUGqEphgFZU6j1QL+Gl2RmgFZX63PKu1ryPAZ6f+T3OB86LeH0T+5SiL+WIFVvuFCU3IkUpNUC7WgM9DDgx83vcStwJ2MQ+pehLOWLFljuFNdCKvISvznugKoUBWlGR1W7SGpG8B6pSlBygdmOqwFZ4aXYlB2iUUi/hUwJUKkVKgPalMuZIpAoMUKlefalcRSk1QEvtfSBpbk4mUoE1UKlefcmGKKXWQEstt5RLkedUkYWm3HJLqpFBIqkORV7CxzamFPkhNehsYFXm97g68vVN7FOKvpQjVmy5m1JkZazU1uiu/hCsonsneRf3KUVfytFVXT2nsiryV0NS7QzQCor8kCTNq8hsKLUGWuSXLWXUl3PKyUQkNa4vARrFS3hJdSgyG0qtgRb5ZUsZFXlOlRqgkuplgFZQ5IckaV5FZkOpNdAiv2wpoyLPqVIDVFK9DNAKivyQJM2ryMpYkYWWVLsiK1elBmiRX7aUUZHnlJfwkupQZDaUWgOVVK++BGhUOZxQubrjgYPb3gmpAYckrNOXyljUc+GdULm6gzFApb5zNiZJjSvy6rTUAC3yy5YyKvKc8h5odWdPLlLfHT+5xOhLZcx7oJlcjQGqMqQ0IvWF90ArKLkmLeVQ5DllR3pJdSiyMlZkoSXVrsjKVakBWuSXLWVU5DnlJbykOhSZDaXWQCXVywAtSJFftpRRX84puzFJalxfAjSK90Al1aHIbCi1Blrkly1lVOQ5VWqASqqXAVpBkR+SpHkVmQ2l1kCL/LKljIo8p0oNUEn1KjJLvISXVIcis8EJlbslZSJbVZMyIXYXv4+uTuxdZDY4oXK3HEL3Tti+SJkQu4vfR1cn9i4yQIu8b0GhX7aUUZHnlPdAJSmRASpJibyEl6RpWWdjMngkDVNkNpRaA5VUr6jnqXeYNVBJSmSAVtCXX0upK/qSDc5IL0lNKLUGKknDRGVcqWPhu3oJfzawqu2d6KmrE9bp4veRUo4m9CUbojgWvltW0b0TtmR+H9V1tVISy0YkSWpCqQHal19LSfWyFV5S4/pSuYpSag1UkobxHmgFXsJLGpmX8JI0zRqoJCUyQCvwEl7SyLyEl1SHvlSurIFKUhNKDVAv4SUNY0d6SWpCqTVQSRrGe6AVeAkvaWRewkvSNCdUriClBvrfgMPr3hGpg/ZLWKcv2RCl1ABNsR9pB5ak8WErvCQ1odRGJEkaxnugFaTcA/0ccFbdOyJ10AmEe/4x+pINUXyoXHU3AD9oeyekBjw9YZ2+dA20H6ikxvUlGwzQCvryaympRbbCS9I0a6CS1IRSA9RLeEnD2JFekppQag1UkobxHmgFXsJL9epLNkTxEl6SplkDlaREBmgFW9reAaln+pINUbf3vISXVIe+tCtEZWKpNdDNbe+ApPFXaoB6CS9pGDvSV2ANVKpXXypXUUqdULmrAZoykW1uKRNJx5ajiffoCyf27pBSA7SrN7z3A45qeydm+HHCOrHlaOI9+iLls1J1XsJX0NUaqKR22Q+0AhuRJI2s1AC1BirVqy/ZEKXUALUGKtWrL+eU90ArsAYq1asvARrFGqikOvTlnLIRqYK+fNlSDinneV/OKS/hK0j5svvy4yHNJyUXDNC6N95hKfdAS/2xUXlKroFGKTVArYFKsys5QKPKHjuUsy+6WgM9C7i4gfeJcUPCOrHlaOI9+iLls4qVEqBdHR6dValj4btaA72BZk6Q3JooR18+qy5KqSz0pWug90Ar6GqASl1gDbSiUhtGUgK01M9K5fEeaEWl1kBTLjf6UnZpPiUHaJRSA9RLeGl2JQeoHekr6GorvNQFJXekj1JqDXRjwjqldvlSeUqugUYpNUDXJ6yzpPa9kLpp24R1+hKgWZ8L3xcpAZpyUEnjqOQAjWINtDoDVKVYmrDOptr3YgwYoNUZoCpFSoCmnFNdZCt8BQaoNDsDtCJroNUZoCpFyrHelwCNUmqAriF+7G7Kr7I0jkqugUYpNUA3Aw9GrvOIHDsiddCOCev0JUC9B1rRfZGv3y3LXkjds3vCOutq34t2eA+0otgA3QVYlGNHpA7ZFtg5Yb2U0X1jr+Qa6D2Rr19ECFGpzw4kvqJwC3akr6RPNdBfJ6yzb907IXXMkQnrXFX7XrQn6yV8n2qsqxPWeW7dOyF1yG7A/0hY75K6d2ScTEQsd7a0jzmcQFzZJwjD1b4DvAjYrvldlrLZH/gl8efEBPD0FvY3l+uJK3vUi+9urhzZ7Um4b5NywEwA9wKfBI7Cqe40npYCRwNnAA+Qdh78hn41rmYN0NiGl647j/QAHVzuIITpc4BtGi2BFGcF8BLgbNJDc3B5X7O7n90NZAzQ2K4/XfdEQqf6OkJ0sJZ+FnAMziGqbtgbOJFQYVhPfcf6OuDRDZajCTeSMUAfaK4cjTmbegN0Zph+Gng+DgVVs54EnAxcQb7j+7SmCtOgrAG6prlyNGZfwq2JXAfZ4I/PV4A/BXZqomAqymJCF6SPEHqY5D6eb6Wfw5tXkzFA1zZWjGa9kPwH3OCyntCafyJpw+YkgB2A44HPE652mjp+txBuUfXRajIGaF/Guw7zUZoN0allM3Ax8BZCVxJpLnsQfni/TTgf2zhm/2f2UrbnJjIG6IbmytG4RYT7lW0ckIPLKuBUQt+6Po38Urr9gJWEH9q6Gz1jlzPp14CamX5FxgDt+3NPFgKfoP0QnVpuBD4IPJN+9bXT3BYChwN/S3rn9hzLh+h3eELmAN3cXDlaswB4I+1dHs223A58Cngetuj30XaE+4qfAn5L+8fb4PJL4MX5it4pWQN0orlytO4A4BzCNF1tH8Azl/uBLxOGlNqiP752AV4KfJ3ppyR0ZVkLfAn4Q/pf6xz0azIHaEkfJoQJFl5PmDCh7YN62DLYov+oTJ+B6rMf8CbgIsItsbaPn8FlM3Ah4Vhakan8XZc9QEse9/044G3AZbR/sM92AlwMvBlb9LtiAfC7wHuBn9H+MTJz2UKoHKwkzA9Rut+QOUAdnhg8ltD16BJGm5Qk53Il8B7gMGzRb9ISwrwIHyW+RtPU8lPgrwjHsaZlD1Af77u1vQi/4D+i/W4msy2/Ak4nzB7lhCf1W0FoaPkyYc6Itr/vYcu1wCnAEzJ9Bn1wM5kD1Hkw57YH8GrgAkK/2bZPmmHL3YTRK8cTRrMozb6EH84f0M3GxgnCbPGnECbO0fxuIXOALmusKONvBSGkziK0nLd9Mg1bNhLum66kfzPr5HAIYZKOy+jurZtVk/t4cJZPoN9uJXOAbt9YUfplKeHy+TTiv6Q2Tr7DsnwK42dbpr+3rt7PHPzeDsryKZQje4Du2FhR+msRYajmqXRrpMnM5XpCcJQ26/7OTF85dPV+5mBoPj7Lp1Cm28gcoH2cwqptTya0lnexm8vUcithmOvR9HMk1P6EB6pdRPf6Z04tm4AfAm8AHpPlU1D2AC21g21T9iXcj7yA7jZMrCHMbn4iYaDBuBq8n9n2Zzrbso5wLKwkNFAqr9hhtNFf6C6NFUW7Ep4eeh7dG5s/tWwiNEKdRPcvJZcTxpufQXx/vyaXqR+oE3CobtOyB+gjGyuKBi0jnPxnEZ4I2vZJPtvSten4pqaCu4B6nwdU93In08/Ssq91e24nc4A63rp92wJ/RKhJxd6zaXK5gTAF2hE0Nx3fjsCxwMdo5tEWoyw3Ej4fpyvsjuwB6iMoumUhocvRycA1tB8Ksy13EZ4JdQL1dt5fNFn+k+h+LXOC6Z4NXamh6+HuIHOA2tm6254IvBP4Cd3t6P0QcC7wcuJvCS0j1NjeDpxPdwcoTC2bgH8G3kqYjEbdFhWgCyb/EGMvwg14dd9jCJezxxIuo7s4Bn4zYUKWcwldiK4iNJhtS2iwPGhyOZgwq9GT6WY5Bj1EqA1/k9AYdEe7u6MIdxAabyuL/UXdu8adVXOmWqC73gg1rstUI5DzC4y3u4j73qMPlH0aK4pyWUy4B3ca3e7O0/Wl1JFafZY9QJ0/sH/GoUN5F5bNk5/RyThXQF/dTeYAdabzfnss3R8J1eSylumRQM7Y3n/ZA7Tro01Un10I3Y6+AjxA+2HW1JKry5W67x4yB+iBjRVFXbIcOA74LPH3icZh+QXwAezUXrrsAep8gxqcju8XtB9+KcvURNIn4cTDmhbbQyX6wPNg00yHEILoYrrbeX+CMOx1qquR89pqmNj5X6MPwkMbK4rG0d6Eae7Oo/1hlZt4eKu5Qyc1n+wB+h8aK4rG3QrgJcDZNNcI9Vvgc8CLCDPLSzGyB+h/bKwo6pPBZ0LFPjp2ruV2Qm33JKxlanRRcyukjIV/MnBFXXurIi0EngL8CfB7hBm+9mDux8VsIDzU7UbgSuBywuX5dcQfw9Js7iei61rK8LOFCetIg7YQJhC5ZMi/LWA6SB9BmJhjA+HSaksje6eSRV3BGKDqmglCXzwG/is1JSpAU8LQAJUk0sLQWWck9VX2GmjXJ7OVpEZYA5WkadZAJakJBqgkTbMGKkmJDFBJaoIBKknTstdAbYWXJKyBStIg74FKUhMMUElKlBKg29W+F5LUDdkv4ZclrCNJ48AAlaQmpATo8tr3QpK6wRqoJCXKHqDWQCUJa6CSNCh7DXSnhHUkaRxEPSI7JUD3SFhHkrpuCQ3UQPeIfRNJGgMvSVlpImHZuYadlaSuWABcRWQWpj7j/XGj7q0kdcjzgENiV0oN0KMS15OkLvrL1BVTLuFXAYtG219J6oT/RFoOTjDCin/eQMEkKbcf0EKA/gantpM03v6Q9AwcKUAngDfnL58kZbEtCS3v1Biga4DH5y6lJGXwPkbLv+gAXTPk735Iemu+JLXh94GNbJ1nDwz5u9oC9GPAZUP+fmXeskpSbR4J3MTWOfZvwFuG/H1tAfpBYH/gvhl/vwE4ImOBJakOi4DvsXW23QDsDrxmyL/VFqAfmtyJFw35t9uBx2YqtCSNagHwSbbOrjuAAyZf89oh/15rDXTKqUP+/efAipoLLUl1+BuGt+s8deA1rx/ymiwBuhA4d8hrrgB2q7HQkjSqd7B1Vm0EjpnxupVDXpclQAF2AH425HVXA3vWUGhJGsUC4H+xdUZtAV425PVvGvLabAEKsA+weshrVxO6CkhSG5YAZzI8PF81yzpvHvL6rAEKsC9w45DXryfcU5CkJu0B/Jjh4TlXJr11yDrZA3Rqh4f1EZ0g3Cvdp3LRJSnds4Gb2TqHNgAvn2fdk4asV1uA/u953nw58KVZ1l0DvAtYOl/pJSnBDoTBPlvYOn/uAv5zhW28bci6jQXolFcDD82yjdXAGycLK0mjWgy8gjBD3LDMuZLpfp7zGdZa33iAQphk5IdzbOte4P0kTKMvSYTZlF4GXMvwjNlEmDBkScQ23zXLthoPUAhdCF4MXD/Pdq8G3kNotd8l8j0klWVnwqX2LcyeKVcSZpqP9e45trnVsniUUlQwAfwj8FVCt4F3Egbyz/QEQvK/a/L/HyQMDb0XWEu4HXDv5H/XD6x3z4ztPED41ZmyFlg38P+bJl8zaOY25rJucpt12AzcX9O2SvcIxu9R28uJqxl1wRLCfrfpGYSGoNn242ZCjnyWcC80VtTMcrkDdMoG4CPAZwj9rN5AOOhns/3kIklV3EG4Qj6dUNFKFRWgsfN4TkS+fqb7CVXkvQgNSbeOuD1JZbsDOIXwqPX3M1p4QuYArcuDwGmE2ZteSWg9k6Sqbgf+ijCI52Tqux3WyUv42awHPkG4X/EyQgdYSZrLj4BP8fD2jbqMVYBOWQ98fHKRpLZ0+h6oJHXZWNwDlaQuMkAlKZEBKkmJDFBJSmSASlKiqCHBtsJL0jRroJKUyACVpEQGqCQlMkAlKZEBKkmJHAsvSYmsgUpSIgNUkhIZoJKUyACVpEQGqCQlyhqg4/bsbUmKYYBKUiIv4SUpkTVQSUpkgEpSIgNUkhJFZeLiyI13IUAXAI8F9gceAWxDKPR6YA1wE3AtsLmtHZQ0tqLbhSYilg/Xtpvx9gFOB+4dsl8zl/uBz0+uI0lVXUhcJka9+LTmyvEwf0y14Jy53As8u4X9lTSeLiIiY8bhHugLgHOAnRLW3Qn4NnB8rXskqa961Q/0GYRL8VH2c1vgC8BzatkjSX3Wm1b4nYCzgaU1bGsbQojuXsO2JPVXbwL0FOBRNW5vV+D9NW5PUv9EZVxXA3Qf4LUZtvtnhO5PkjRML2qgL2b+PqpXAa8BDptcXgusmmedRcCfj7pzknoraz/Qv69tN+d25Rz78AAhLIcVdCHweuDBOda/PPO+Sxpfl5OxH+gZDRRgCbBplvf/DfA7FbbxpMnXDtvGJkLLvCTNdAUZ+4HGDv1MsS/hUnum24BnAT+tsI0rJl/72yH/tmjyPSRppqz3QJsI0GEd5jcCxwDXR2znesIIpo1D/m3HhP2S1H9jH6D3Dvm79wGXJWzrUuDUIX+/IWFbkvovayPSl2vbzdntBGwZeM97gB1G2N6OPHwc/RZCn1BJmukaxvwe6H2Ee5hTvktoeU91/+Q2plwH3DnC9iT1V9ZL+G0iX5/qOwN//lUN2xvcxiU1bE9SP439PVCATxImSIZ6Rg49fuDPX61he5L6Kes90O/XtpvzO23yPe9jtAlFljHdsf5qhneRkiSAG8nYkf7C5srBLsANk+/7yhG28zqmG4+eW8N+Seqvm8gYoD9qrhwAHEpoBPoVaX03dwJuJuz7B2rcL0n99GsyBui/NFeOf/cHhEvwlGGkZxL2+0y6P3m0pPZNVbiyBOilzZXjYZ5C6Hp0dMQ6Lyc8pXNllj2S1Ee3kjFAf95cObZyAGFW+So1yScDn8CnckqK81syBmjMWPQ2rWh7BySNpTuIyMTY+4Lb1befWd3T9g5IGktZO9Ivi3y9JI0TA1SSEmUfC9/UcE5JalrWAAVroZL6ywCVpETZA3SUyY0lqcuyB6izuUvqKwNUkhJlD9B9E9aRpK7bhgYC9LCEdSSp696UslLMWPgJwgPebEiS1Cd7M/3kimyTiUwtb2ymTJLUiPOIz8EHIdQoY1e8G3hkI8WSpLyOI60i+QGA9yau/LkmSiZJGe37RcYNAAACzElEQVRI/GM8JoCHgN0hPDfozoQNTAAvzV8+ScrmLNKy78ODG3lL4kYeBJ6UsXCSlMt/JS331gKPHtzQUsKTL1M2djvw+GxFlKT6/Q5h4vWUzPu7YRv8i8SNTQC/BPaqvYiSVL+DiXx0x8CyBnjMsI0uBP41caMTwGqsiUrqtmcBt5Gec6fMtfHfBzaPsPHbgGfWVFBJqssi4G3AJtLz7WZg+/ne6IwR3mAC2EAYEpUyTFSS6vYM4KeMlmsTwDFV3mw5cHUNb/Zj4NARCi1JozgA+BKwhdHz7OMxb/xEQkfRUd90M/B14I+AAwnhLEk57Q18CtjI6Bk2AaxiluxaMMdOvAw4c+SibG0tsI7Qh3QjcD8haAef5T71b4NmPut9A6FFbFCV9TZOvi7GesIPSoypcsZ4aPK9mnQv4SDpmgnCvklVPQp4O/BKYNuatnk78FTgxmH/OFeAArwbOLmmHZHUDWsIFZC+WQ4sqXF764AjgX+Z7QXzBSjA6cDr6tojSRoDG4DjgW/O9aJFFTb0fULHUYdsSirBesIMTefP98IqATpBmCtve+Bpo+2XJHXafYTw/G6VF1cJ0CnfJ9w7ORL7eErqnxuAo4D/W3WFKvdAZzoC+CKTc+FJUg98D3gJYWrPylJqkhcR7odekLCuJHXJWmAloa96VHhC3CX8oAcJM9JfBzwdO8hLGj8XAP8F+FbqBka9l/kF4CDgI4Qkl6SuuxY4FngOcM0oG0q5Bzqb3YG3EkYBWCOV1DUXAR8idE/aUscG6wzQKTsBLwROIMyCkuM9JGkumwlzFP8CuBD4BnB93W+SO9x2I/Qf3ZFwv3UhIWAhjFVdNvnnHYDFk39eCmw3xzbn+/ftJl8zm2VUHyc7uF91m68co1hM2PdcVmTcds7PXMHM+SFyrxcz38LgHBez/XlqbooNhLk07p98j6k/30MIy+zDVf8/pbd/UgBL4LEAAAAASUVORK5CYII=;fontStyle=2;fontFamily=Georgia;fontSize=16;" vertex="1" parent="1">
          <mxGeometry x="300" y="370" width="100" height="129" as="geometry" />
        </mxCell>
        <mxCell id="JUDbLiN2Od7CmGKuxI0P-5" style="edgeStyle=orthogonalEdgeStyle;rounded=0;orthogonalLoop=1;jettySize=auto;html=1;entryX=0;entryY=0.5;entryDx=0;entryDy=0;" edge="1" parent="1" source="JUDbLiN2Od7CmGKuxI0P-3" target="JUDbLiN2Od7CmGKuxI0P-2">
          <mxGeometry relative="1" as="geometry" />
        </mxCell>
        <mxCell id="JUDbLiN2Od7CmGKuxI0P-3" value="Heavy Forwarder" style="shape=image;verticalLabelPosition=bottom;verticalAlign=top;imageAspect=0;image=data:image/png,iVBORw0KGgoAAAANSUhEUgAAAVEAAAG2CAYAAADGN7V4AAAACXBIWXMAAA7DAAAOwwHHb6hkAAAAGXRFWHRTb2Z0d2FyZQB3d3cuaW5rc2NhcGUub3Jnm+48GgAAIABJREFUeJzt3XeYJVW57/Fvd09PYiIMEpUcBRUFRTwgURQkKmDEeNQrHrMier33+JgueriKHjkH4zkqD4gJDEgSMIECopJHkjAMMDDMDAyTw75/vL3vND27u/da76pVYf8+z1MPw0xX7beqZ369qmqFPvLbAdgC2BSYDWwCzAL6gIlD/w8wHZgw9OsBYMYox5sCTB7lz2YC/R1+f8LQ8ccyY+hzc8n9eamsBZaWXUSAZcDqTJ/1JLAu02ctjtxvJbAiwdesApYn+Jql2N8pgKeANUO/Hv59a/+6/XdvydDvrRrn2IXoK/j404ADgYOB/YB9sMAUEUltDRa8i4GFwP1D233ANcDtRXxoESG6PXACcDzwYmCwgM8QEQl1H/A14OskvHtKFaKTgFcBpwEHJDqmiEgRFgNfBM4iwaOdFCF6DHA29qxTRKQu7gLeDVzpOYgnRLcGvgO8zFOAiEiJWsCXgI+x4SVWkNgQPRT4PrBV5P4iIlVyI3AKcG/ojp26/4zng8AVKEBFpDn2Bf6EvQwPEhKifcCZ2MPYmPAVEamyOcDVwMkhO3Xbubsfe/55WmBRIiJ1MgE4EZgP/KWbHboJ0T6sb9Xb4+sSEamNfqzX0UPATeN9cTcheibwfmdRIiJ10gccBdwN3DLeF47lzdhtvIhIL1oDvBy4arQvGCtED8Q6oU5MVMwTWOfWR4BHsTGuK9gwucHwSQ6WYP23Oh1jfYffH22ih+GTGQxX9CQULewcekk/NuFL1ZVd51iT6eTQzeQ7RRrE5tTIYR/gI2yYyCjWImB/LL+6Ngd7sNpKsN0IvJbRZ1oSESlKO/y8OXYngeH/kwQfej/wGoqfKUpEZCzTgG/gz7RvdvuBpzo/aD1wDuXeMoiIjHQC9kjQk28njvchM7FnlrEf8ATWNUBEpIr2xHd7/wjjPNM+y3HwucDuiU5URKQoWwC3EZ91Z4524C2xN+QxB70cW+pDRKQOtsBmuo/Ju5WMMvXnZyIP+HX8XQhERHLbHlhAXO59Y+TBBrE1SUIP9CM0GYmI1NdLiLsDXw1sN/xAR0QcZCmaDk9E6u904lqj5ww/yJciDvAfhZ6WiEgeA8AfiXs2um37IJdHHODwos9MRCSTfbCh46E5eHb7AHMDd1yBlkIWkWb5LuEhuhxsWOaKwB1vzHNOIiLZbINNjBQUpP1Y/9DQyUHGnF9PRKSG5gP/N3SnfuI6yd8esY+ISNWdFbpDP3Fz+82L2EdEpOqWh+4QG6IPRewjItI4/cAmEfspREVEiA/Rh1MXIiJSRzG38yuxNYpERHpeTEv0iSIKERGpo5iW6JNFFCIiUkf9wKTAfdQSFREZ0k/4hMpqiYqIDIkJUbVERUSG9BM+G1Nwj34RkaaKaYmuLqIQEZE6UoiKiDgoREVEHGKeiSpERUSGqCUqIuKgEBURcYgJ0TVFFCIiUkcxIbqqiEJEROpIL5ZERBz0TFRExEEhKiLi0D+0hVCIiogM6Qf6AvdRiIqIDFGIiog4KERFRBwUoiIiDqEvlUAhKiLy/8W8nV9XRCEiInUUczvfKqIQEZE6UoiKiDjEhOj6IgoREakjtURFRBwUoiIiDrqdFxFxUEtURMRBISoi4qDbeRERB7VERUQcFKIiIg66nRcRcVBLVETEQSEqIuKg23kREQe1REVEHELXnAeFqDTPDGCgi69bXHQhUk+3Y8HY7bZzOWWKuB0AfBe4EXgQWEHY3/3T85csmQ0S9neiBXBn4A475jobkcTmAHMJ/0fS3tYDb8teteQUFaKhf6l2yHU2IgXYEXiE+CBdC5yYvWrJJSpE/x64w/aZTkakKPsCS4kP0uXAgdmrlhyiQvSuwB2eletsRAp0FLCG+CBdAjw3e9VStKgQvTtwh2fmOhuRgr2d+BBtAfPRnVnTRIXoPYE7bJvrbEQy+BS+IL0L2CJ71VKUqBC9N3CHrXOdjUgGfcC38AXp9cC03IVLIaJC9L7AHbbKdTYimQwAF+EL0l8Dk3IXLskpREUiTQNuwBek52FDqaW+okL0/sAdFKLSVHMI7/I3cvta9qolpagQfSBwB4WoNNlO+Drjt4CPZa9aUokK0XmBO+jFkjTdfsBTxIeohofWV1SIPhi4g0JUesHR+Drja3hoPUWF6PzAHRSi0iv+Gd9tvYaH1k9UiD4UuMM2uc5GpAI+jS9IlwDPy161xMoSohqxJL2kD/gOviB9ENgud+ESJSpEQ99EKkSl1wwAP8EXpBoeWg9RIbogcAeFqPSiKcDv8QXpDWh4aNVFheijgTsoRKVXbUb4cjojNw0PrbaoEH0scAdNhSe9bBvCR/mN3M5Hw0OrKipEFwbuoBCVXrcn8Di+INXw0GqKCtHQvwya2V4EXoRvVFMLOCN71TKeqBBdFLiDQlTEvBLfqKb12Oz6Uh3BIdqHhejsgA/ZHnsm1EQzsO4sZXkSWBe4T+qa12AtrLJNBDZJfMynsPNL6a3AN7H+pDHWAq8GLk5WkXgMAqtDdphA/De/aKcCewEzh7Z+YNaw/w5gAdLJNOxidDIdO+8q2g2bii3EtcCzE9awEjgBuDThMUNtir3FTj3S5+XAZYmP+W1gS+CzkftPwF40HQn8LlVRktcSwpqv22eq6x2BdTVh2zXiOt1aQB0rsMApwyz8kyOPth1ZYN1fcda2GNi7wPqkO1HPRJ8I3GH7TCcD9gaz7GDLuVUlRFuUE6QzgOsS1D7aVmSI9gMXOOvT6qHliwrRJwN32CHX2WC37D8MrK/OW5VCtIUF6SsiaooxDbudLfL6FhmiYM9xr3DWOBfYvOA6ZXRRIRraTWP7TCfTNgj8MrDGum5VC9EWsAo4JqKuEFOBqwo+jxbFhyjYM/cbnXXeMHQcyS8qRJcF7pCzJdo2BbgmsM46blUM0RbFBukk4JIM59AiT4iCtSTvdNaq4aHliArR5YE7lBGiYM/LinrhUJWtqiHaopggnQj8PFP9LfKFKMCOwMPOejU8NL8sIbpjrrPpYA7wt1HqasJW5RBtkfYZ6UTgZxlrb5E3RAH2IfzF7cjtK5lr7nXBIdpPeD/RMvuVLgQOx4JD8puMzauZIkjXYt3rmuwvWJ/bVY5j/AvwiTTlSFFWEpa8ZbZE2zYHbqH8lmPqreot0faW6tZ+APh+xrpzt0TbjsN+aMTWreGh+UTdzoeG6E65zmYcz6CcAClyq0uItkgbpOdnqrmsEAV41xh1dbOtBV6VvereExWiKwJ32DnX2XRhS/xvQau01SlEW6R7RjoIXJSh3jJDFPyL3q0ADspedW/J0hKtUoiCrVvjnW28KlvdQrRFuhbpRPzrGI23lR2iAF/Fdw5PYC+spBhZWqK75DobyWIK/lE2KVuknYJ0HTbg4gPAIdiEK5tTz36UA/hb3Q9RXlfDplOISpSqBel5w477FHBEguNWyRTgt/iu91zsvYCkleV2XiHaTFUK0j7sRcxlNPcZ4CzgZnzXW8ND01OIikuKIM0x1r4ptgbuw3e9r6KejzWqKkuIxrz8kPpQkOa1M7AA3/X+KeWuyNAkClFJYhLwCxSkuewHLMV3vc/JXnUzKUQlGQVpXodh18tzvf9n9qqbJ0uI7pbrbKR0CtK8Xod15/Jc7/dkr7pZFKKSnII0r/fgu9bt1UMlTlSIht5C7J7rbKQyFKR5fRH/tT48e9XNoBCVwihI8+kDvoPvWmt4aByFqBRKQZrPIP5lUxagft2hsoToHrnORipJQZrPVOAP+K713dgkPdIdhahkoSDNZzPgDnzX+m/YMFMZX5a383vmOhuptCnA5fj+ca8EjspdeA1tB8zHd62vxKYblLFlCdFn5zobqTwFaT57A4vxXWutHjq+LLfzaonKcKlu7Y/NXXgN7Q8sw3etv5a96nrJEqJqicpICtJ8jgHW4LvWp2evuj4UolIaBWk+/4zvOq8H3pK96nrIEqJ75TobqR0FaT7/C991Xk2aCbSbRiEqpVOQ5nM2vuu8DDgge9XVphCVSlCQ5tEPXIjvOi9EoxCHyxKie+c6G8lqAnAGNvnFjATHU/enPCYBV+O7zvcBW+UuvKKyhOhzcp2NZLMH8Hs2fI/vJc33WUGax0zgr/iu81+HjtPrFKLS0SAwe2jbGngB8ErgQ9iKmp3+DjwO7JvgsxWkeWyF/fDzXGctepcpRJ+b4UQ2A/4ScTJ132KWXrm1wHqWkObFQxWD9J+AM4FvAz/BAuTGoe124J5h2wJg0bDNO/v88O2khOe0C/Cos54L6e1RTY0JUbAg9d6i1G2rWoi2gCeBl0TUNVLVgvQlWDefsr/nKUMU0ix699XENdVJo0IUYA5wc2B9dd6qGKItmhuk73LWkmJLHaIAL8O/6N3HC6irDqJCNPSncc4QBdic3gnSqoZoC3gKODiivpGq1v3pU85avFsRIQrwGnyPHdYDbyuotirL0hJ9Xq6zGeYZwG2BddZxq3KItmhui9Tbad2zFRWiAB9w1rYGOLrA+qooS0u0jBAFC9KcgVHGVvUQXYy92U+hSi3SPuCbzlpityJDFOzlmae+5aT5wVkXWUK0zMWvtsQ/y3eVtyqH6BLspUVKVWqRTgB+7KwlZis6RPuA/3bW2EujmhofomDrxTT11r6qIboMOCiitm5UqUU6CFzsrCV0KzpEAQaAnzrrnAc8M0OtZeuJEAUL0tvJ+5c9x1bFEF0GHBJRV4gqBelE4GfOWkK2HCEK1uofPiotZrsVG7DRZFlC9Pm5zmYc2wJ3ke8ve46taiG6inzTpVUtSH/urKXbLVeIgvW99jY+fgNMzlhzbj0VomBBejf5w66orUohWsZqnFULUm8t3Ww5QxTs38z9zpovxh4RNFFUiIYuNVClEAV7TnMP5QVfyq0qIboWODmilhSqFKRTgCuctYy35Q5RsNUpHo+st739Z/aq88jSEk3VxUVkNFV6a99UB2LdlzzX+JPZqy5elpaoQlRyqFKLtKlSLHp3Wvaqi5UlRFNMjybSDQVp8U7FhnjGXt+1wInZqy6OQlQaR0FavE/iu77LsakFm0AhKo2kIC3el/Fd3yU0Y8L2LCGaeuifSDcUpMVKsejdg8CzcheemEJUGk1BWqyJ+HtF3AZsmrvwhLKE6AtznY1IBwrSYs0AbsJ3ff8ITM1deCIKUekJCtJibQ78Hd/1/Rk2M1bdKESlZyhIi7UT8Ai+6/v17FX7ZQnRF+U6G5FxKEiL9QJsNQPP9f3X3EU7KUSl5yhIi3UINoTWc33/JXvV8bKE6P65zkakSwrSYnkXvVsLvCp71XGiQnRt4A4KUakiBWmx3o3v2q7AJj2pOoWo9DQFabH+D75ru4T8S66HynI7/+JcZyM9ZQDYJcFxpgCX4fvHrmn0OusD/gvftZ2HTQxdVVlaogpRSW0A+B7WUklxp6MWaXEGgUvwXdsqr9WUJUQPyHU20hMGgPPY8PdrKXBwguMqSIszFbgW37W9BvseVY1CVGplkM5rvT9FmhVGFaTFmQPMxXdtz8ceEVSJQlRqYyJjr4W+DDgswedMwr9yp4K0sx3xj2r6bPaqx5blxdJLcp2NNFa3LcRlwOEJPk8vm4qzL/YIxnNt35m96tFlaYkqRMVjEjY5RUh4pVi6WS3S4hyKXZvY67oWOD571Z0pRKXSYlfxXAUcl+DzFaTFeR2+tZqWU42eP1lCtClrqUheU/Gt4b4KOCFBHQrS4pyB77o+Rpq+wh5ZQrQOQ7ekWjbBurR4/oG1gCeAzRLUo2ekxfl3fNd1Lmm+x7GCQ7QPC9GBgA85CPhduppHdRz2U2lT7C/91KH/Tsb+UU7EukfMGmX/fmDmKH82gM3gXTX7AfcE7nMtsHsBtaQ0EfueeazEWqKX+ssB7O/SRcDLHMdYh00VV3XvBi7I9FkD2FpNnmWUr8VeKK5IUlGYQWB16E6hLdGDEhU7no8G1tWEbdeI63RrBeouelsJvCLi2ownRYu0DtubUl2wLk0Gfuus+cdYQyi34JZoGUV264tYZ1zpbauwVs2vCjj2Cuyt8OUFHLuXrcSu61zHMU7EMqDy+qneiIG2FvBm0t2+Sf2sBk7GxmoXZQX2kugXBX5GL1qE3T086jjGB7FHEZVW5ZYo2D+iV5HnGaxUSztAf5bhs1YBr0ZBmtp9wCux7kuxzgaOSFNOMfqxFl/oPjktx1oKf8v8uVKe1cBJwMUZP3MVFtq6tU/rBuCthOdM2wTgh8DOySpKrOot0bYl2FtUzzMWqYc1wCnkaYGOpGekxfgBcJ1j/5nAuYlqSS4mRMt6hvoo1qy/t6TPl+K1A/SiEmtQkKb3UXwTF7WArySqJbmYF0uxzfIU5mFzTSpIm2cdcCo2s1PZ9LIpnZcDn3Me41PkfbQTLHQVvxTzPHo9CwvSsvvfpd56tZ/oWuC1EedetBRDRKuwvSn1henS7tijOE/tF5L37jdLP9EqdIl6AJtr8oGyCxG3tdjkFVXsE7wKe8GlW/twm2Et+dFGDXbjWuzupJWkooLU5cVSJ/dhU3DNK7sQibYWeAPW2qiqldgQZAVp9yZjz7V3chzjHuzZ9MokFRWoziEKdqEPBeaXXYgEWwe8BXtzW3Ur0TPSbvVjiw56Znt7HDgam9Wp8iZE7FOF2/nh7sYmKplcdiEJxExmcQBhE8hURV0m72hrT8U3vexCIizL+FlnYQMXYq3AJuGuVXfG0BdLKda9EZHm+SC+l0jr8M3+lELUfKKhIZpizRsRaZaTCM+Skdt7s1e9sagQDZ3SXyEqIsMdiN2GewK0KjM2ZQnRSk8GICJZ7YG9CPIE6IVU5yW3QlREstkK62roCdDfUq2XwllC1LOcgog0w3Tgz/gC9HZs+Z8qUYiKSOEGsZUGPAH6ELB95rq7kSVEj8x1NiJSOX3At/AF6DLgRbkL71KWLk4vz3U2IlI5/4ovQNdQzKKDqWRpiSpERXrTO/AF6HpslvsqU4iKSCGOxVqRnhD9ePaqw2UJ0So3xUUkvf2x55ieAP2P7FXHUYiKSFLPxpY/9gToRdRnkpwsIXpUrrMRkVJti0187gnQa6hWZ/rxKERFJInNsM7wngC9BZidu3CnLCF6dK6zEZFSTAF+jy9A5wHPzF14AlEhGrqDQlSkuQaAn+AL0IXYInV1lCVEX5nrbEQkqz7gm/gCdDm+NebLphAVkWifwxega7HF5epMISoiUf4HvgCtw2ikbmQJ0WNynY2IZHE81or0hOgZ2asuhkJURIIcjC0J7QnQuoxG6kaWED0219mISKH2BhbjC9A6jUbqhkJURLqyAzYxsidAr6Feo5G6ERyiEyI+pC9JqWObA1wC7Jzhs6pkP+CewH2uJX2fvGXACcCNiY/bjSlYP8WqTtqb2luAizN/5ubApdgaSbFuBo7DHgX0vNCfPsdlqmtb4O6I+uq87RpxnW4tqJYlwAsj6vGYCPw8Qe112k5KcuW6NxX7weupua6jkboR3BKNWaY0R0sU4EHgEMJbZpLGTOBy8gXpIPBD1IWuSIPAj4EXO47xOLbi77wkFTVAlUMU7Bt1GPCPjJ8pG8zEbvv2LfhzJgDnoeftRWqvjeSZVH059kPuziQVNURMiOZ2P/BSbH1ryW82cCXFtUj7ge+Q/7a213wBeKNj/3XA64E/pimnOeoQomBzGh6MgrQsRd3a9wHnAG9IfFx5utOADzv2b2HrK12UppzmCX2ofGI5ZQKwE/5JYqu8VenFUqdtEfCCiBo76QO+lrH2qm5Ft8BfR/iKviO3OqyNlEqjXix1cg9wKDC/xBp62WzgCtIE6URgtwTHkdEdgT0q8dxx/js2MYmMoi6388Pdjb21V5CWYzbwa/y39quwF0lXuyuSTl6AvYmf6DjGxcD705TTXHUMUYC7sCB9qOxCelSqZ6Ttt73XeAuSp9kJ+CUw3XGM3wCvwR4FyBjqdjs/nIK0XDOBy0gXpL91VyRgo5EuAbZwHONWbMSaRiN1oc4hCvB34HBgQdmF9KhZWD9S7zPSZdit/fXuinrbdOz7EfOCsu0fwJHYxCTShT7sDVOIk7GRJVUyhWZMhPAk4bdPM4ifRWca9txrn8j92xZjLzH+7DzOLKxP6mihvBy4ARu3/RDwKLB0WA2w4Roux567dms1Fua5LRv6bK+J2C384Y5jLAT+CZiboJ66GiTi+xG62ufJiYqVatgUuInqdH/aFPjLiGOvAz6D/cCQjfUD5+P7/i0D9s9deAVlWTJZIdo8m1GtIJ2DtTZbWGvylATHbLIv4fu+rUGr+LZlmU9UIdpMs7BbZW+QLsam9PPaHJuKr+4LnxXtdHzfr6asjZRKlpaoWgXNtRkb30qX2SKt0kvMKjqV8H+/I7emrI2USpaWqEK02arWIpXODscedXi+R+dkr7r6soToa3KdjZRGQVpt+2G9Ejzfm6atjZSKQlSSUZBW085Yv2jP9+RqmtElsAhZnom+NtfZSOkUpNWyNTYdpOd7cQv2fZXOsoTo63KdjVRCqpdNjwPPz1x7k8wE/orve3AfFsQyOoWoFEJBWq7J2CQtnmv/GJp6sBsKUSmMbu3LMYANs/Zc82XAAbkLr6ksIfr6XGcjlTMbBWluX8F3rVfjW5yu1yhEpXAK0nw+he8arwfelL3qelOIShYK0uK9E//1/WD2qusvS4hqZUYBBWmRjgPW4ruun89edTMoRCWr2dgkIQrSdA4GVuC7nt9D8w7EyhKib8x1NlILCtJ09saug+c6/hyYkLvwBlGISikUpH47Ag/ju35/BDbJXXjDRIXousAdTs11NlIrc/CPqGlhHfK9y5XUzTOwhRc91+1W7IeZ+GRpiSpEZTRqkYabjv+azQOelbvwhsoSom/KdTZSSwrS7k3EVuf0XKeFwB65C2+wLLfzb850MpLfKcA78M8zOQf4G/4gXUhzb+37gQvwXZ+ngBflLrzhFKISZXOevlrkdcA2zmMqSMem4ZzVlCVE35LrbKQwz8C605wMfB17mTPy+3wvsJPzc1IG6fOctVTJJ/Bdj/Wov3ZRgkO0yv3JXgpsh03DNhGbT7Efe+bWx9Mnlu0f+vNOBoFpo/zZZGBKimITORyb8zHEpcAu43zNDDbcok+nu36EOwC/Aw4D7gisqW3h0P6/Bp4TeQywvwO/x2Z093gzdk5lehvwaecxPgx8P0EtkkhoSzTX8qqfDayrCduuEdfp1oJrmof9MPNI1SL1bkc6z8PrWPzDOc/MXnVvyXI7nytE+7HRF2X/w8u5VTFEW1gfxi0iahsu1Vt7z1ZmiO6PvQjy1K/hnMULDtH+iA/J9U1cj00AfX2mz5PR7Qz8At9omMXAK4Cbk1RUL3sBl+C7fr/A3ke0klQkyfRT7W/KUuwf3i1lFyLsC3zZeYzHsOe+vRSk22HPrT2jia7Fup+tTVKRJFXllmjbIuw27O7Mnysbexv+hc56KUjnYAHq6S52G3AMsDxJRZJcTIiW4WHgCODBsgvpcX/Gvhde7SBt8h3GJtgt+O6OYzyA9QVdlKQiKUQdWqJt/8D+4T1S0uf3ukVY38RUj38ew7o/NTFIB4Ef4RtN9DgWoGo4VFw/9XrbNxebtDZFa0i6twKbbX1u4uO2g7RJt/Z92AAGz2ii5dj1ju2fKxnFvFgqO3TnYrf2j5ZcR69YB7wW6+xehKbd2n8R39DoNcCrgT8kqUayCO0n+o5yytzI7vgnsa3aVrV+oiuwf9A5bI61SIu8vkX3E/2os771aG6KskV1tg8dQfHOXGfThedgLZmywy/VVqUQfRjrIJ5T0UFaZIieSvi0kiO3DxVYn3Sn50IUbGKKhZQfgCm2MkN0PTAfG+f+IWy8fRmKDNKiQvQobFYlT21fKKg2CZNlApKyn4mO9FdgN0afgKRO5kXs83JsgpZQq4FlQ79eBzwZcYwiPAa8GP8w006KeCG5P3Ah9o8v1neB09OUI2UIbYm+q5wyRSpnF2xmKU8L9Bdodc4qyTJ2XkRsFNIV2Nyssa5Hwzlrr06d7UWqYibwS3xTBN6OzQuxbLwvlGpTS1QkzBTsFvy5jmPMx15GaThnA6glKtK9AWxG+X9yHONxbLDI/UkqktKpJSrSnT7gXOBExzHaw2c1nLNhQt/On1ZOmSKl+jy+t/CrsVt4qbaozvZrAnd4T66zEamI9+IL0PXYiCapviwjltQSlV5yHP7F5T6cvWqJlSVE1RKVXnEQ9hzTE6AazlkvClGRRPbEuiB5AvT76OVt3USNWGoFfoi6OEnTbQ38Ct/icldiy4uvT1KRVJZ+Soo83QxseeNnOY5xPXAC9kZeGk6d7UU2mAj8BN9opLuw1TmfSlKRVJ5aoiKmH3uGeZjjGPPR0jU9Ry1REXMWcJJj/yewzvQaztmDQjvbv6+cMkUK8xF8b+GX4xtPL9WRZcTS+3OdjUgGryF8scbh21rsJZI0g0JUJMDBwEriA3Q91o1JmiNLiH4g19mIFGgvYDG+2/iPZK9aiqYQFenCtsAD+AL0q9mrlhyyhOgHc52NSAE2xZbm8AToeah7YFNpoTqRMUwBLgb2cBzjSuAtaDinDNHYeeklL8buvB4ibkTRn4Dj0XBOGSZmvWuFqNTVVUPbcNOByUP/Hc8CtDqnjBAToiJNsnRoe6zsQqSe9ExURMRBY+dFRBzUEhURcVBLVETEQS1REREHtURFRBzUEhURcVBLVETEQS1REREHtURFRBzUEhURcVBLVETEQS1RERGHmPlERURkiG7nRUQcdDsvIuKglqiIiINaoiIiDmqJiog4qCUqIuKglqiIiINaoiIiDmqJiog4qCUqIuKglqiIiINaoiIiDpqARETEQbfzIiIOup0XEXFQS1RExEEtURERB7VERUQ2GAzdQS1REZEN3hC6Q0wXp0mhHyIiUgMDwIdjdlyJBWm320PAJv56RUQq5WTCsrC9BYdoC/hYnnMSEcmS+ufvAAAKD0lEQVTmRjKG6GJg0yynJSJSvJcRF6AtgBWRO34ux5mJiGRwNSWE6FPAVhlOTkSkSIcQH6CuEG0B3yv+/ERECvU7SgzRFnBo4acoIlKMV+PLvxbAsoAvXgesH/F7dwMzCj5REZHUpgL/IEGIPhXwxUuBf+vw+xcUeqoiIul9gY2z7L86/N64Ibo04IuXAROB6zv82TuLPFsRkYReit1ZD8+wO4HpRITokwFfvGKogJ2AJSP+bBX2lktEpMrmAPezcX49f+jPg0P0iYAvXjWskFM6/PkiYPfUZywikshE4DdsnF3Dx8yPbKGOG6IjW5RjbWtGFPSlDl9zH7BdqjMWEUmkn87PPH/F02e0W9Pha5KF6NoRRU0ArurwdfcDOyY5bRERvz7gHDbOqrnA7BFfu7rD140ZoosCvnh9h+I2Z+PnC+0W6Q6+8xYRcZuEDQwamVGP0fnxY2jfeR4P3KHTzPb70DmM5wG7RZ+6iIjPHDqPSFrMhhdJIy3v8PVjhujCwB0GRvng59M5kB8G9go+dRERnyOA+XQO0P3H2C+k73wLrEkbssNYa5A8d5TjPT50QiIiRZsJfIWNR1e2747Ha9SFdPtsATwauMN4y4PsBvy1w35rsLf5modURIrQh62R9DCds+svwDO7OE7Iy/YWwILAHaZ0UcQk4Gw6/yRYAnwba5lO7uJYIiLjOYjOIynb27l0nzchL9tbAI8E7jA14MSOpvOb+/a2Gvvp8A3gQ8BJ2LOKrdDSzCIyvt2AnzJ6xjyGzdQUIug9UR/W9N0y4AOmYw9euzUFeD9wxtC+IRZhD4EXDW1PYiOs1mPdEFZifVeXDn19N3/WtpSN+72ONHz/sXRzrCJMI2Kd7AaaSb2X/55Cve/KBihnJrfjgXcw+r+Bi7E5PRYEHvdRrOtm1x4irCUae7G2AP6T8NEA2rRp0xay3YsNS48VdHces+587E/8BcC7sDdj59O5476ISIzVwJXAa7EO9D9wHCsom/qAB4FtAvbZDLu19toL+BRwAnr+KSLdewxrbd6JDdu8HrgO6ySfQlAmTiBfS3SkW4FXYZ30P4KNLPDqA2YlOI5XP/acrmxlPasaaRB7fivNNvwdwho2vDsJ+fUK7N3HUuw9xhNDv34Yu5t9jI0nQkotqCUaE6KpW403YU1wkbLNop53RSF1Dw+ubpX14rQsQZk4IeID6vwWVGQsS8ouINLisgtomKCWaM4XSyIidVB4iNbxdkdEpFtqiYqIOChERUQcFKIiIg4KURERh6BMVIiKiDyd3s6LiDjodl5ExEEhKiLioBAVEXFQiIqIOChERUQcFKIiIg7q4iQi4hAcoqFrHQ0Efr2ISJ0Eh2gotURFpMk07FNEJBeFqIjI06klKiKSi97Oi4g8nVqiIiIOClERkVwmEN5PtGohOg3YFhgEFgHzyy1HRGquJ1qi+wJnA7cBTwJ3ADcDDwKPAN8FXlhadSJSZ6GZyHVDO3W7HZmq0ghHATeMUlen7cfANqVUKiJ1dTlhmci1gTu8ItupbDAL+EFgne1tIfDS/CWLSE1dRkDG1OF2/pnAH4CTI/ffDLgCODZZRSLSZI16JjoLuBTY03mcQeB84EXuikREhql6Z/tz8Qdo21TgImBGouOJSDMFt0RD5WqJHkn8LfxotgQ+kfiYItLDYuYTzRWiHy/ouO8Dtijo2CLSYyZQzWeiOwEHjvM19wMXAndj/UMnA7sCR2Bv40ebPHoScBzw9SSVikjTBE88fzVhXYZS32J38q4xPv9h4HjGDvM9GLuv1y+LKlxEau9KGtDFae9Rfv8G4HnYC6KxHkPcgT1T/bdR/nzX+NJEpOGCWqIxz0RzvJ3fusPvLQBOGPpvN1rAR+nc6twqsi4Rab6ghmI/sK7ID4jU6SfBRwmfXKQFvA14osPvi4h0EtwSXRP4ATlCdOGI/38YuCDyWAuwF1DDPRB5LBFpvuAQXRv4ATlC9LYR/38VsNpxvJEBfIfjWCLSbMG381UM0atH/P+dzuPdPOL/f+o8nog0VyNaojfx9OAMfeQw0rIRv/6Z83gi0lyFt0RzjZ0/c9ivt3Qea86wX38eWOo8nog0VyNaogDfA/409Ov9nMfad+i/dwNnOY8lIs3WmBBdB5wKLAYOAHZwHOskYAnWz3SlvzQRabBGdHFq+zsWfMux/p4xdgZeOXScWxPVJSLNNSnki6vcEm37DbYkyeuxlT1DfRJbm+mahDWJSHNNDvniOoQowO+AU4BjAvfbG/gM8PvkFYlIU00J+eIJVPft/EjXs3F/z/HcUkQhItJojWyJtumlkIgUqY8GPhMVEcllMoF32/2Et+4UoiLSVEGtULBAXB6xj4hIEwW9VAILxKci9hERaaLgbpT9PH1yjm6U9XZeRKRowSsBx4SoWqIi0lRRIarbeRERo5aoiIhDlhDVM1ERaargaTf7sSniQgRNEyUiUhOTgJfG7DiALQLX6nK7DZjor1dEpFKOp/scHL4BcF/gTmdkOCERkZx+RXiArmvvfE3gjsuBHQs/JRGRPPbEAjE0RH/YPsC5ETtfUvhpiYjkcRFxt/Lt9ds4IfIAJxd9ZiIiBTuUuPy7YvhBpmFdnUIP8ij+5YxFRMoyg/B3Qu3t8JEH+1rkgS5BfUdFpH76gPOIy73rOx1wZ2yC5pgDfjr9+YmIFOp/E5d3LewRaEc/dhz0tLTnJyJSmPcC64nLuj8xxt33PsS3RtcBp6c8SxGRAnyC+MZix2ehI33Z+QHfATZJcKIiIinNBH6EL98u6uaDpgPznB/0D+Boz9mKiCR0HPFv4dvbEmCbkA/0fFh7uxR4QeRJi4h4DGJZdgVp8uztnT5krK5JXwQ+7D8PWlgT+pPA3ATHE5HeMJMN8xfPYMMMctOBCUN/PmPEtimwA7AbsAvpJkv6PvDGTn8wVogOAL8EjkxUxFrgMsJXFxXJof0Ps9dMwdZa71YfMKvAz5hF9fqd3wLszyjZNV6xs7HX+bskLkpEpA7mAy8B7h/tC8Zb6mMxcBhwV8KiRETq4AnsBfmoAQrdrZc0DzgEPc8Ukd7xOPAy4G/jfWG3i87NBw4Gbo6vSUSkFuYBBzLK+PiRQlbufAQ4ABuwLyLSRDdiz0Dv6HaH0OWPlwFvAN4ErAjcV0Skyr4HHIS1RLsWu4b8d7G07qq5KyJSYQuAU4BTiWgcepY/fgT4NvAgdps/1XEsEZHc1gP/jY1qujH2IN415FvATcC3hn79bKxjrYhIlV2CtT7PxfloMvXIgGnAW4H3odVARaRaWtgozM8D16Y6aFHDqwawW/xjsaayRjyJSFnWAhcAZwK3pj54rjGquwPbYRMEzMQmBZg+7M+nApOG/f/sUY7Tzbjd8cZAjzeOdxBrUac28hxTmYjmb+3GWmBp2UVktrjsAjJbin2fh7sOOAubnrMQ/w/UCK+FKEWA0AAAAABJRU5ErkJggg==;fontFamily=Georgia;fontStyle=2;fontSize=16;" vertex="1" parent="1">
          <mxGeometry x="80" y="370" width="100" height="129" as="geometry" />
        </mxCell>
        <mxCell id="JUDbLiN2Od7CmGKuxI0P-6" style="edgeStyle=orthogonalEdgeStyle;rounded=0;orthogonalLoop=1;jettySize=auto;html=1;" edge="1" parent="1" source="JUDbLiN2Od7CmGKuxI0P-7" target="JUDbLiN2Od7CmGKuxI0P-8">
          <mxGeometry relative="1" as="geometry" />
        </mxCell>
        <mxCell id="JUDbLiN2Od7CmGKuxI0P-7" value="Search Head" style="shape=image;verticalLabelPosition=bottom;verticalAlign=top;imageAspect=0;image=data:image/png,iVBORw0KGgoAAAANSUhEUgAAAVIAAAG0CAYAAABgyK9wAAAACXBIWXMAAA7DAAAOwwHHb6hkAAAAGXRFWHRTb2Z0d2FyZQB3d3cuaW5rc2NhcGUub3Jnm+48GgAAIABJREFUeJzt3XecnWWd9/HPTCa9kgDSQlPUNYoNsNCWLkgVBKOrrrqgLMquHXRtqI/4sIKIj6LISxAWXQIICBIQRIqNYpAiGkhCSCGFEFJJnXn++M285syZMzPn+l13P9/363VDZnKu677ukzm/ufrVRrp2Az4FnA6MTvleIiL1NgH/C5wHPJ3WTdpSyvflwOeADwHDU7qHiEizNgO/AL4FPJl05kkH0tcDXwZOBNoTzltEJFYncB3wdeDxpDJNKpDuCnwR+AgwLKE8RUTS0glcD5wDzI3NLDbojcGqylcD+6FaqIiUQxswDfgoMAH4PbAlJjOv/YArgVdH5CEiUgRzgX8F7vMk9tRI27F+0CuB7T03FREpmG2A9wMjgHuBrpDEoTXSkcBPgemB6UREymImcBqwutkEIYF0CvBL4MDAQomIlM2jwHHAs828uNlAOhmr7k5zFkpEpGzmAQcAi4d6YTOj7GOAm1EQFZHWsgdwB9YaH9RQgbQDa87vn0ChRETKZhpwK1ahdPsWNnqVxPUC8Hm05l5E0jUCOANYSnLx60fewhyCTVCNLcBG4GJseoGISFbGA18F1pNMMA2erbQdsCSBG98A7BJ6cxGRBE3FYlFsPFvZnVfTfhx5w4XAKZ4nFhFJybHAM8TFtmuavdnriWvSXwmMdT+qiEh6xmF7g3jjWyfwtmZudFfEDT4b+5QiIhk4B4tZnlj3R4aYg7+/M+Mu4KzEHlFEJH2fwB/vDh0s4xnOTL+R4MOJiGTlfHwx75cDZbgrth1/aIZ3on1IRaSc2vF1Z27FVj71c54jszUETgcQESmYXYG1hMe/rzfK7HFHRl9I5bFERLL1ZcLj32P1mbzckckKbCqBiEjZjQWWEx4H94Levs0THDf+IVYdFhEpu3XYQqRQx0FvIPVs1jzTkUZEpKg8Ma1P7HySsOrsJmCUv7wiIoUzmvCZS0/0JO7AAmNI4qa23xcRKZlFhMXCjcCwdmAHYHjgzVYkU2YRkUJ5PvD1I4Dt24GJjpstc6QRESm65Y40E7yBNDRqi4iUgSe2TWwHJjgSrnSkEREpOk9sm+Stkb7kSCMiUnSe2OZu2iuQikgVeWLbxHZ8u9lvcKQRESk6TyAd145vYr1qpCJSRZ5K4sh2bB5UKAVSEakiTyAd0U74ZHxQIBWRavLEtuHtwMiMbiYiUnSe2DbC27Tf6EgjIlJ0mfaRbnGkEREpuq2ONCO8TXsFUhGpIk9sczftFUhFpIoUSEVEImUaSD39CCIiRbfZkWZkO7ZDfijVSEWkijyVxI52YJgjoQKpiFSRJ7a1K5CKiPTyxLZh7fQeyZz2zUREis4dSFUjFRExmQZSjdqLSBW5+0jVtBcRMZn2kapGKiJVlGnTvtORRkSk6LocadzTnzw3ExEpOk9sc9dIFUhFpIrcgdTTR6pAKiJVlGmNVH2kIlJF7j5S1UhFRIynkqg+UhGRGhpsEhGJpMEmEZFIrj7SDqAto5tJMY0HdgG26b4mA6OBccDwBq9fjx3HvQZYWXMtwHcmuEiRePpI2z2744MCaRlNAfYB3gy8CdgT2A0LnElZjgXUecAj3dcsYFGC9xBJkzu2PdOdOOSaFFdWyUA7cADwDeAhbH+E0H/npK7ZwPeB47EasEhRbUP4z/c88AXSCZk8knjsB1yE1QLzCpyDXRuBm4H3YF0IIkUyCWcgne9IqFpFsUwAzgIeI/9AGXKtBq4A9k38HRHxmUj4z/Ez4Auk4zJ5JBnKLsB3sYGfvINi7PV74FR8p9qKJGU8zkD6rCPh2EweSQayB3AZ1kzOOwAmfc0DPohvfrNIrHGE/8zOBxtlDU2ovq18TAHOx6YZ5R3w0r6eBN6Nb3qeiNdYMgyko7J5JunWAXwKWEX+AS7r635g7/i3UKQpYwj/GX0WfKO7I7J5JsHmfT5I/gEtz2szcDEa5JT0jcYZSBc6EiqQpm80cCH5zv8s2jUfOCTmTRUZwkjCfy4XgK9GqpHVdO0D/I38A1cRr63At9Evc0nHCMJ/Jhe2AYuBHQNv1oFOEk3L2cAF5BMongeew5oqK4AN2Dr6WlNqrl2AXcnnF+tfgNOAp3O4t1TXcGBTYJpFWmtfHOOBn2BzKbPwD2zu5gNY7fdx+gfNZgzH1uzvja3hfzOwP+n3Z74J+DO2Quo3Kd9LWocntrWB1UBCq7KakpKs3Ul/VdJK4OfA+4DtU36eDuBtwJeAh1N+ri3AJ1N+Hmkd7YT/DC4CXyCV5LwVWEI6QWYDcC1wLI23xMvKHsA5WC04rYD6YzSJX+K1Ef6ztxjCP8TqG03O8aQzuX4+8FlsJ5siaQMOBGZgNcmkn/taNAgl8UJ/7p6D8EC6JaunqbjpWKd2koHkcWwApgyzKl4O/JDkl7nOREuYJU4njkC6NDDR5qyepsI+QrLzQ5/C+j49x8bkbQ/gZyT7ftyNljGLX+jP4hKAZYGJNmb1NBV1Csk1a18CvopNIi67NwJ/ILlgejvVeF8ke6GfT1cg3ZDV01TQiViNPolA8VvgFdkWP3XtwMewfUqTeI9+gQagJFxol9tSsHN2QmtBEu5tJDOwtAWbVlTGZnyz9gDuIZlgenHGZZfyC+23dwXS9Vk9TYXsQXhfdKNrEXBwxmXPSzvwZZLpOz0947JLuW0g7OdrGdiywJBE67J6mooYDzxBfDD4C7BzxmUvgqMI/xmtvzYCB2VdcCmt0JbjcrA11SGJ1mT1NBXxC+KD6E209vEur8BmJsS8h8tozV9EEm4dgYHUM9+wK5GitoZPYPM6Y/wIO9iudiHEdthofVHni3YCZyaY39NYH/PN3f/32A64CjgcK5/IQEJjXBvAC4RF31UJFbbq9iZ+svlF9N/XYALF3+g5rbnGY7E5ojFlOzelskl1hB4m+TyEB9IXs3qaEhsBzCLuA//NBvmOwqY95R0o8wqkYEdB3BlRtk3AfimWT8ovdPrdCrBdgUISebZaazXnEReILmiQZwdwY2S+VQikYDXTP0WU7zHy3cRFii30bLQVYDXM4EQyoL0Inz5Re11B/+Z8G3B5RJ5VC6RgG0vHnCKgJr4MJDQmvuBJ9HxWT1NSd+D/cM+g8UqciyLyrGogBZuf650atR7bOEWkXmh350oIr8Yuz+ppSugk/MHnIRpvtHFuRJ5VD6Rgo/DeZbe3ZFhOKY/QKaGuQLosq6cpmWH4J94vxs4/qvcewrf0KsKV9Q5hn48o68EZl1WKL7SV8yKEj1AtyeppSuZf8H2QN2G75Nd7C+ls+lzFQNoO3OUs6x/R0TnSV+hGTq5A+lxWT1Miw4DZ+D7IjQY9pmC73OcdEMsSSMFq9KFNsp7rpBzKK8UVui/GKgiffKpA2t8p+D7Av6P/Lk5twK+d+RXlymvz7w8HlLH2eiSPwkphuQLp2sBECqT9/ZnwD+867Bjjev/uyKtoV16BtA375eQp8xHZF1cKKjSQri7qWu1tgPNTyHcD1u+4AfsFshrr3/g78Kgzz4PxrZS5AGu+19oD+LazHGI/1Gdi/5ahP9ufAX6TeIma8z20m3+zziH9RUFdga9vg/CdThYnVNjBTA0sUxLXF51lvdlxr/nYUsdabZRj+WeRa6Q9LiW8zJ3Y/gh5CO1ea+VrqvM9DhF6IOiadjRi2aO+dtiMqcAxjnT/h/4bZJ8FHOLIS/r7MuHbPbYBZ6RQFimf4JhY5eMqQnRih6WFOoPwM4GWYqdm1toT+Jbj/tLYMqxWGmo6amKL1TJDtCmQmgcJX7E1HDtWOdQl9D/36iJae+PmNFxE+Im3k4FjUyiLVFubmvbmNkeaI4AdA9OsBX5Q972DgeMd95fBPQdc6Uj3waQLItWnQGp+7UjzHkeaGfQdcWwD/tuRjzTn+440R2LnbEnrcjXtQwNp6E2KbjnwcGCaUfhqkfU1pPcB+zjykeY8hu1bGmIkmlPa6jTY5HAn4Wf4HAlMDEzzDHBvzdcjgW8E5iHhfuxI45mJIdWhwSaH3znSeGosV9H3H+gUGq9skmTdQPig0ztRl5c0T4NN2GFqoTyB9Ka6rzVnMRurCF+xtAPwmhTKIhXV6oF0EXZeeohdgFcFplmKHYbXox37sIbWlMTnOkeatydeCqmqtqKutV8JfDSD+yxwpNnXkeZ2+vbDdtIbjCdigXUcNjd1FH13yh+LnUo6kAkMvihgEtn/sizaufG3Y90qIe/D24HL0ilOP2ejw/ialcXhm64B9S2ErStdlERJS+zrhK8Pnp5LSaXWY4T9mz2RTzGlABYT9rOySYNN4d7oSBM6BUeSd1fg61+JtQ5EhtRO+BSoqs0jDfXqwNevAOalURAJ8ofA13cA/5RGQaRy2tpRYAzRTuND6gYTOtlf0vGQI820xEshVaTpT4FeRvjuQLOGfolkYB52XnmI3VMohxRfcOVSgTTMzo40cxIvhXh0AX8LTLN7CuWQ6tHKpkCTHGk8G0ZLOkKnu2nlmTRFgTRM6Pp6UCAtktBAul0qpZCqUY00kCeQeib9SzpC/y0mp1IKqRxPIG3lUf7QgaYt9D+bSfKzMPD1U1IphVSOaqRhQs9nWpdKKcSr/oiXoWhCvjSjS4E0TOj7pdposYTuAeBZsCItSD8kYUKniml3p2LxbKYy2IYxUk2ueaSp36RCQgOjPoTF4vnZ3Zp4KaRqujxLRFt5Av/qwNePTaUU4hVacegENqdREKkUHX4XaE3g68ekUgrxelng6zekUgqpGleNtJWFBtKejZqlGHYIfP3aVEohRZdJH2krCw2kEL5blKRnp8DXL0ulFFJ0Oo45ZZ5AunvShRC3HQNfvzyVUkjRhdZI1bQP5PlgaeOL4nh54OuXpFIKqRzVSMOsxHa8D/GKNAoiwYYDewem0ckG0hTNIw33dODr35RKKSTUNMIH/rSXrDTFE0hbeR4pwFOBr98HvWdF4Dm0MPSXplSDa9Q+uGM19CYVExpIJwN7plEQCbJv4Ou7gL+mURCpHvWRhgsNpAD7J14KCXVU4OvnAavSKIhUTldH3iUYwBTghwGvXwl8NKWy1As99wfgGOBnSRek26gU8y6r/wCeq/l6GuGtgr847jsO2BUY3f318O7vgVVaajcGn0Rvl8947PhnsNVwPfvejqR3dVxH9+t68vog6W/T+BNgQsr3CHUm4QO+mdiCNWOavbI4OmNqYJkWZVCmHsOw+aQh5XuB3g9K0sYFlqXq14v03zf2XEc+Zzfx3tf7WobP6TmtIdSyDJ+n2Wtqqk9sng0s0ybNIw23lfCz6rcB3p5CWaS/e+m/Y9OxznxCHepII8UTHBPVR+pznyPNaYmXQhq5o+7r3YG3BuaxEng0MM04YL/ANFIN2iHfqf7D2ozp9PadSTo6gV/Wfe90wisMMwnfBPoAtP9sy9KEfJ8/Eb436TbASSmURXrNpG9/+XDgw458bnGkUbO+hamP1Gcz9qEN9ZGkCyJ9XFz39YmEb523GbjNce8DHWmkItS095vhSHMottJJknc3/btcPu7I53asjzTEaLQUuEo02JSh2/DN4/tC0gUROoFP133vMOAgR17XONLsg/pHW5kGmyKsA65zpDsBmyAuyfkZMKvue1935LMGuMmRTlPbWpz6SONc5kjTjk3clmSsA75Y971jgLc58roKWO9IpyXALU410ji/B55wpDsZOCThsrSqzwCLa74eBnzDkU8X8ANnGVZiS1I3OdNLyXmWLWZRg10BnBrw+pfSKkgTLgQud6S7GBug2JJscVrKzcCldd87C9+WeXfj+6UItu69x3hgW2wdfe1a+RH0Hs9duwbfy1NzDvVv9K77L4os1tm7YtxGwtaVzkuipBUyEquNeNYNfyKB+7fqWvtFWMCqNRWb3+vJ78gm32+pvnmE/ey8BHZ2twJpnM/g+/CuBfaKvHcrBtKtwBEN3osbnfk92NQ7La1CgTQnY7B+Os+H+E/E7QzVioG00WDdqRH5ndDUOy2tQoE0R2fh/yB/JeK+rRZIr6L/0S2vwLbP8+T3+6bfaWkVmQTSuVk9Tcl0YDsGeT7MW7ApOx6tFEjvof/gxyhsE2Zvnpq6JPVCA+l6UI00SYfi/0CvBF7puGerBNInsI1f6l0ekee1Tb7H0lrm4gikLwUmUo10cD/H/8H+O3YERYhWCKQLsH1F6308Is81wC7NvcXSYhRIC2A74o5ouJuwfUurHkifA17V4LlPw0bvvfl+ptk3WFqOAmlBxIwgd2Fb9DU7EbrKgXQ58NoGz3w44fOfa69ZpHeGlpSfAmmB/Ji4IHIjtgJmKFUNpCtpvEJpP/yT7ruw/Ua15Z0MJjSQrgOLpgqkyYsdTe4JpkM186sYSFcBb2nwrIcRF0S7gPOHeD9F5hAYSNuwQBrSJzeP8DPCW9XLgYcIH0CqdT9wPANvNtxB9Y4weRJ4vO57pwBXE7f2ezbwBvLdm0GKbw5hMW59z39UI03PCdjGwzG1qMdp7V9eH8Pm2sa8h53AwVkXXEopuEYK4YF0TlZPUyHnE9/cXYENsrSSUdjuTkl0F/ww47JLebkC6brARAqk4dqxpY2xwWAzdlTJsGyLn4s9sW6RJIJoF/BTtP+uNCc0kK4FBdKsDAduJZmg8Dtsy7iqOgnrE04qiPZcV9Iav4QkjgJpwY3BNslIIiisxPoOq1TL2hk7ByvpAFp7XY2CqQzuaRRIC28b/JubNLruB/bO9AmSNww4G5v2lGYQ7bl+jibky8BcgXRtYCIF0ng7YVN8kgoMW7E+wLKtHW/DpnbNIpsAWntdS3MLHqT1hAbSNaBAmpdtgQdINjisBy4BdsvwOTzasGlhsQsWYq8bsZkBIrUyCaRPZ/U0LWAc8BuSDxCbsFkCRdtrcxLwUfKpgQ503Q1MSPOhpXQUSEtoJDCD9ALFE8Cnya+W2o4dLHcN4XOWs7oewga6RACewhFI1wQmUiBN3jBswniawaIT60r4ElZTTbN/cE/gDOB/sR2c0n6umO30eq5l6CRRMQqkJXcmcdvDhVxrsWbthcD7sV2Vtgss73hgGnAi8F/YAE7ozjkx1wvd9/5XkgmmW4EraO3luBIeSFe3YYF0XMBN5mCHjaVpCuVa0nclNtk+CftjNbm8mprrgKXYPNXajVI2Y7XYiVif4vY0PvojK38ApgPPdn/9fmzmQhJzRLdiG5w8iW0s/bfu+z2SQN61JgPfAcYmnG+VnYktl07TU4TFuMLWSKcGlinvawvwiQSffwr+M9qrfm3Alsk2mgc6HQv4ad17Lhb4pjW4t9chhM/lbuUrixV9wTVSUCBN8rqYZFfNnEF2k9TLcD1E4x3za51KusG0C+t+SfKokkMp7kBc0a7CBtLQjXIVSAe/bibZptou3Xnm/Vx5XmuAc2l+NdLJ2BSwtMt1BTCiyTIN5XAUTJu5sgikodOfVoECaRrXw9jqpSQdh/Xb5f1sWV5bsCNbdnS8XyeTfs20C9tAJmbj7lpHEn70T6tdlQmkWaxsKnsg7cIGQZJeAz8C+BQ2GJT386V9/Yr4vsj3kcxo/lDXI8AOkWXt8Q4UTAe7FEgDVCGQdmHv7dEJvzdgXQefA5YU4BmTvDZiI+9J/gL6CPEnFDRzPY0dLZOEo7FBtbz/PYp4FTaQhg5mKJCGXZuxKRtpGAl8mGR3k8rjWgp8E18TvhnnZfQczwGvT6jM70TBtNFV2ECqPtJsrotJd+/QN3ff4/kCPGsz13psAv9xpL8LUzvp7GnQ6FoJHJhQud+Bgmn9lUUgDd3Y+UVQjTTL65fY5s5pGgkcA1xG8Zr+C7Cm+2mk/z7U25HwqX7eaz32CyIJx5PdarcyXEWskSqQ5nA9SHpN2HptwOuA/wCuxwbAsnrOTuwHcgbwceDVKT9rM75Dds+/GfhAQuU+gWymc5XhKmSNtA2LphMDbjKX5DrVBzKV3qV/VfQscCzwWA73fhk2mLMnsEfd/yc78lsBLMRqmwuwZZWPAH+le6JygeyD/SLLSidwFnYSaqyTsKXDrb4Z9a7Yz1maQs+1X1XU4xZWYCtUqmwn8gmkS7H+wkbGYl0Dk7ANj0dj6+o7sN+8G7Fm67ruPy/BpuqUxV+xco/M6H7twA+w9/GiyLx+CRxA8TftTlva6+w9uqCYTXuRtOS1qfT5WTycJCJ0B7OV7d1/EGkVebQCAD4PfCOne0uY4JjoCaRtoTcRKZC8AinAF7EBL32GKuhF1LSX1rEb2SwbHez6EenOKZY4oU37F1QjlVYzH1sIkKczgMtJdstFydlKVCOV1rIDdkxJnrXSLjSdqahcNdJQqpFK2S0BTif/gdZTsdpxUnuaSo5Ca6Rz8ymmSOK+Rv610i7g19i8XSmGeYT9+62A8CaOAqlURTtwA/kH0i5s/9WsFgrI4IKb9qBAKq1tNHAP+QfSLuA2VDMtguAaqaZgSKt7CdupaVbeBcG2zbsRC+5SIgqkIra5yjuwM7HydhQKpmXTpXmkImYZto/r4rwLgh2CdxMKpmXR5qmRhgZekbKYAxyCTY/K2xHATGBc3gVpQaGVxS417UX6mo3VCIuwXdtB2NQoBdOCUyAV6e8x4HC6p7Xk7EBsNH983gWRgamPVKSxR7CTPNfkXRBsQ+dbUM00K8Hdl6qRigzsT9iRMOvyLgjWzL8VO8VA0hVcWVQgFRncvdjUqLV5FwQLphqAKh4NNok04X7gaIoRTA/ABqBUMy0QBVKR5tyPzTMtQjA9EDsMT/NM06GmvUiK7sMGoIrQZ3oEtgJKa/Pz51rZJNLK7gVOpBjHUB+JgmkhqEYqEu5O4ASKEUyPwrYC1BZ8OVIgFfH5DVYz3ZB3QbCBMAXTHHVQzAn52wHXZHAfScdWbMpQ2u7A//O4FPgYcYNHdwAnYQM/eTevjwH+B5gObE4gv28B+ySQT9LeCyzPuxCNLCNsE9N5GZRpamCZdBXrSuKD3IzOyHLeTzJzMo/Cmvl5v+9dwHVYBSnWtti+A3k/T/01NYFnG8r8wDIt1eF30sr2x9axxwbT27GaaRGa+ScDPyc+mD6PdRksiy5R+Wj6k0igngnuscF0JsUJpqdgzfzYYDoHOz2gCNO9Ck2BVMQmuCexjn0m8C5gY3SJ4p0KXA0Mi8znAazfdWt0iSpM80hFzEEks1roNiyIbYouUbzTgMuIrzD9CvhkfHGqSzVSkV5JrRa6GQtiWQ26DeZDwCUJ5HMJcEEC+VSSAqlIXz3nJcUG0xuxPtMiNPP/HbgogXw+D1yVQD5Vo8PvRBo4Erie+AnutwLvoRjN/P8EvhCZRxdwOnBPfHGqRYffiTR2DMk082+kOCugvgl8KjKPjcDxwKPxxSksHX4nkqB3kMzSy9soztSo/wb+LTKP1dgvmgXxxakGBVKRwSW1jn0mxdjopA24FBsMi7EIC6YvRpeoAoq61n45NoIq5ZRV98+RGd0HYBK2Pj/GHViz+CZgTHSJ/IYBP8NqlrdF5PM48FayWbbZo5Dr7AGeI2xd6fx8iilSGQdiQSzvdevrgX9O91FLaQFh7+NiTcgXyd592OmkeR9bMhqrHb8p53KUnvpIRfJxL7Zr1OqcyzEBuAXYNedyFIlG7UVK5A/AocALOZdjR6yvdFLO5SgtNe1F8vUwNjMg79Hv12Cbqaty5YiJetNE8vcAVjNdkXM5jgbOzbkMRRDctAdYSNgI1bMJFVZE+nojtqFyniP5W7ANr1tZaExcqCWiIsUxC5satSTHMgwDvk/8PqYtRUeNiBTLk9hilDyP+HgDtmpJmqTBJpHieRw4hHxrpkfneO+y0fQnkYL6G3AwtqY9D7vldN8icM0jVY1UpJhmYzXThTncO4ljqstK059EKuYpbD181rNl8t6lqlQUSEWKbw52ON/cjO/ZqtS0F6mo+dik/awC3MMZ3acS2tF0JpGymA8cADyW8n22YhuZSJN0+J1IuSzBaqZp1hhvIt95rKWjpr1I+TwPHIbta5q0rcDXU8i3yjSPVKSkVmGH892ecL7fBR5JOM+W8AzatESkrEYAM0hmw5L7iD/krwoWE/a+zaP7PyGJdASrSLEMA64gLoj+GZiccbmLSoFUpEW1AV8BOgkPor8Axmdf5MJyBdK5gYkUSEWKazq2KqmZz/Ic4JR8illoCqQiwt7A94Cn6V9DXQZcC5wEDM+rgAUXGkjntmGBdI+AmywEpiZX5oa2w86PKbs1wLtSvsdo4OaU7yFhjgU25l2IbhOAbYEO7CiTvI8zqfcLYErA698LLE+pLD0WYwcCNmteR1oliTQKODzvQiQgi9Mhh1GN96pKirS7/GryP/J5MAcCOwW8flRaBamh45hFRLKmlU0iInFUIxURiaVNS0REIqlGKiLSV3BlUYFURKSv0LioPlIRkTrBcVGj9iIifWkeqYhIJFcfqWqkIiK9gmukHRRz+tNSYJ8M7pO2LRncYz3VeK+qZEPeBSiRownbPGVpWgWp4Ypxswnb6WRhEiUVESmo1YTFxH+oaS8i0pcGm0REImlCvohIpEzmkWqtvYhIDU+NVIFURKoskyWi6g4QkSrLZEK+AqmIVJlqpCIikTIZtVcgFZEqU9NeRCRSJhPyFUhFpMpUIxURieCZ3qkaqYhIDdc8eQVSEZFervimpr2ISC817UVEIqlpLyISyR1IPbs/aeMSEakiT0XRvbGzaqUiUkWZNe1j0omIFFlmTfuedCIiVZPZqD0okIpINalpLyISKbMJ+e6biYgUnJr2IiKRNNgkIhJJNVIRkUjuPtIs04mIFJma9iIikdS0FxGJlOk8Um1aIiJVlOk80uGem4mIFFymTfuRznQiIkWWadNegVREqijTUXsFUhGpIvfGzp5AOsqRRkSk6DJt2o9wphMRKbIORxr3YJNqpCJSRa4ZSRpsEhHp5amRarBJRKSGp0aqeaQiIjXcNVIPBVIRqSJ3H6ma9iIiRk17EZFImTaUfOnuAAALHElEQVTtNf1JRKpITXsRkUiZTshXIBWRKlKNVEQkkvpIRUQijfYk8gbScc50IiJFNtaRxr2N3iRHGhGRohvjSOMebFIgFZEq8tRI3U17BVIRqSJPjdQ9aq9AKiJV5O4j9VAgFZEqcjftPTXSMcB4zw1FRApsgieRt0YKsEtEWhGRItrJkcbdtAcFUhGpnp09iRRIRURMG7CDJ6G3jxRgN2c6EZEi2hnnUfMxNdLXRaQVESmaA53p3EtEAd7gTCciUkSHehPG1Ej3ACZGpBcRKYpJwHu8iWMCaRtwRER6EZGiOAP/rnZRTXuAd0WkFREpggnAJ2MyiKmRAhwHbBuZh4hInr6Ec9pTj9ga6Tjg3JgCiIjk6J+AsyPzcK1sqg+8nwD2jyyIiEjWRgBX03/uaHDl0lMj/StwV83Xw4EZwO6hNxcRydG3gDfVfe8u4NHAfLoAftf9h2avvwAvAxbVfX8OznWqIiIZOwnopG8MWwRsD8wiLCb+ztO0bwOWAtOBLTXf3xO4m8hOWxGRlL0ZuAqLZT22YDFtGeGD8F1gwS8k+tZWe88Z4O81ki8iRbQ78Bz949bna17zWIO/H+y6G8ID6eM1N2wDbmjwmkeAKUk9uYhIAnYD5tI/Xl1P39rpEw1ek3ggfaKucKOBBxq8TsFURIpiN2wcp9GYT/3xIk82eN1g12/p/k9IoicbFHJn4OkGr30YNfNFJF9vBhbSPz7NpvGO+H9v8NohA2lojfTvAxR2F+CpBq+fC0zzPL2ISKSTgXU0DqIDzTKa3eD1iddInxqk0DvTeOrAWuD0kKcXEYkwEriA/lOcelrKg53N1Kh1PWQgvSsw0ZwhHmAccMsAaWcCrxr6PRARcXsDA4+838zQuzw16ksd7LoLwgPpvCYeZBjwFWxuVn36TcCl2H6mIiJJ2QX4CY3jzhZsc5Jm5ojOa5B+yEB6Z2CiZwIe7GDg2QHy2QzchG3FNzIgTxGRWnsCFwPraRxr5gMHBeQ3f4B8Eg2kzwY+5Hjge8DWQfJcAfw/4DC0zFREmvMW4Foa10B7aqHfxWJQiAUD5DfQdWcbFkgPC7jJInxHMe+Ldf4e3MRrNwDLsUGqtcAqYA32xqzGgnKP+q97XjfQ12ux2vBAX4eqzz/GRuy3alUMx7/reJm0YUdVlM1IYEzehXCYDLyfwXeduxv4LDawFGoRgw9G1burA4uoIbybQT8I/DPwTqz/dN9BXjsKmOq8j4i0rgeArwK3ReTRNvRL+nDtRxq7q/6twH5Yn8X12OCTiIjXRuA64ACsuR8TRMER4zocNwmN1gO5r/vaBhtwOhSrTm+P7SA1OaH7iEh1vAAswXZpWozN4bwBWJngPVyBNKum/UBWApd3X7V6+p16+tlGY03+cd3fm1Tzmp7g3k7fI6Lr++jq+4TG0HfGwHj6/nKZSO/zNuoHm4BN9RpMbR4ieejExhkGsxUbb6j1Ir3xoT6PLdj4QI/6/v313d/rUT+WsKo7T7rv8WLN/zdjYxcvYeMlPeMYteVJU/A2ep4aaVZBoYve3zLLMrpnXmp/GQxkmyH+vv6XSKix9D9yIU1pDETFDhyG2oQtP/RqJjAMVdPqCT6SnFI17aVXMx+EJJsuIjKw4BppHoNNIiJFFhzjPIffKZCKSJW5AmkWaUREyqIU80hFRIpMTXsRkUiZDDZp1F5Eqkx9pCIikdS0FxGJpMEmEZEIbTi6L71BUcFURKrIFds8TXvQgJOIVJMnkLqa9t6biYgUnauSqEAqItIr06a9AqmIVJGa9iIikVQjFRGJlGmNVKP2IlJFGmwSEYmkpr2ISCR3016BVETEuJv2noQKpCJSRUMdr96QloiKiPTyxDbNIxURqeGKbR34aqSu6m/CtgcOA14F7IA9xwvAbOAe4JncSiYiZeUOpB55Nu3fAXwaC6KDlePvwI+Ay4B1GZRLRMrPHdtuxGpzIddukYX12BG42VHW+cAxOZRXRMpnN8JjzI1l6SN9LfAQcJwj7a7Ar4DPJVoiEaki94T8LNN57IX1ee4UkUc78G3g7ERKJCJVVcmVTWOxrofJCeV3IfC2hPISkeqp5DZ65wCvSTC/YdjgUxFmHYhI8WTatM9i1H57bHQ+adOAd6WQr4iUnyu2eeeRZlEj/QAweojXdAJ/Bh4BVmMj+28HXjFEutOBGbEFFJHKcTXtAW4gfLj/tfHlHdIfB7n/VuDH2ET8Rg4HHhgk/SZgQoplF5Fyei3h8fCGog42jQDeMMDfrQOOAM4AlgzwmjuB/YGrB/j74cAbYwooIpVUqcGmHYFRDb7/EvBO4LdN5LEZ6x64foC/H6r5LyKtp1KDTeMG+P7nsDmlzeoCzgSWNfg7Ne1FpJ57P9IiNu1XN/jek8APHHktB77W4PsbHXmJSLVVqmm/GGua17oUG6X3uBLrFqjVqJYqIq2tUktEtwK/r/ve7RH5rWuQ36yI/ESkmiq3RPSmmj93AnMj86tN/0wC+YlI9VSqaQ/wU2Blzdf1Tf1QtctCr8H3C0REqq1So/YAq4ALuv/cDrwsMr9p3f9fC3wvMi8RqaZKjdr3uIDevs39I/LZFdi3+8/nAUtjCiUilVW5pj3AFmA6toLpQxH5fA5r2t8KfCeBcolINVVq1L7WAuAorEZ6kCP9fsBHsVH/d+OfQiUi1Ve5UftajwLHAv8XWyffrMnYwNIF3enr55KKiNSqZNO+1h+AjwMnBqQ5G3gv8AWsm0BEZDAtcRzzQ91Xs76aUjlEpJoqXyMVEUlbpftIRUSyoBqpiEikyq1sEhHJWiVXNomIZElNexGRSBpsEhGJVNkloiIiWcm0aa/BJhGpIg02iYhE0mCTiEgkdx/pWke6UZ6biYgU3EhHmpfAdo7vCrzmAOOjiywiUhxjgX8QHg97Tt/gTkfiH6b+WCIi2bmU8Dh4S20Ghzsy6ALemepjiYhk40js9IzQGNjvLLkHHZksBrZN68lERDKwLRbLQuPfzEaZneLIqAvrFvBuEC0ikqcOfF2bXcCBjTJsBx5zZqhz4kWkjC7BX4Ec0InOTLuAC9GKJxEphzbgIvzxrl/faH3mD0Rkfjm+eVgiIlkZCfwUf5y7vpmbHIJv9KrnehjYK/JBRUTS8ErgL/jj26buPJpyRcSNuoDVwGeAEd6nFRFJ0Ajgs8Aa4mLbt0NuOgVYGnnDLmA2NhtAa/NFJA/tWAyaTXw8exLH8viTE7hxz/Uo8G4UUEUkG+1YzHmUZGLYFuCt3sJcmFAheq4ngA8Aw7wFEhEZRDtwHHH9oI2uTw1206GmK3UAdwEHOR5oMGuwCC8ikqQOkt9Q6X+AfxnsBc3M+9weuBd4VRIlEhEpkfuxdfgvDfaiZifQ74wF0z0jCyUiUhazgEOBF4d6YbODP4uwHaKe8ZdJRKQ0HgAOo4kgCmGj6POwDUzvcxRKRKQsrscWJq1sNkHodKTnsf6CawLTiYgU3VbgPGza1PqQhDGbjLwb2yV/SkQeIiJFMB/4IHCPJ3HMBPkZwOuBX0XkISKSp03YfPnX4QyikNy2dwcD5xMx819EJEOdwHXAF7DDPKMkvX/occDHgSNSyFtEJNZqbAu9S0gggPZIK9jtBZyO1VD3AnZI6T4iIoNZCTyFrbm/BfgNgQNJzciq1tizbGsSMA47P3ocMIa+G0GPp+/5T5NqytjW/XV9nj1GdudXayLh/cDDgAmBacB2hRntSFf/zGXlfd8kW+uBjY50TU8FqrERX9BahTW9AdYCmxv8eR3Wv7kVq2WuxJaer+n+eg2wAJtplLr/D1RVibERgFj7AAAAAElFTkSuQmCC;horizontal=1;fontFamily=Georgia;fontStyle=2;fontSize=16;" vertex="1" parent="1">
          <mxGeometry x="800" y="110" width="100" height="129" as="geometry" />
        </mxCell>
        <mxCell id="JUDbLiN2Od7CmGKuxI0P-8" value="Indexer" style="shape=image;verticalLabelPosition=bottom;verticalAlign=top;imageAspect=0;image=data:image/png,iVBORw0KGgoAAAANSUhEUgAAAVAAAAG0CAYAAABkPX9NAAAACXBIWXMAAA7DAAAOwwHHb6hkAAAAGXRFWHRTb2Z0d2FyZQB3d3cuaW5rc2NhcGUub3Jnm+48GgAAIABJREFUeJzt3Xm4JWVh5/FvLzRNN4sNiICyCAoIOBMliY64MEKMQQkZlGeMcTCaEXdbRw1xewTNGMw4KhKNqEFFjQsqIrjiEDQYJghBlAZ0WBqVRfat6b3v/PHem3u4fe699b6n3qo69X4/z1MPTfepOvWeU/U7b9W71ALyWAA8HzgJODzTe0jSfC4HPgJ8Adhc98YX1Ly9JcCLCMF5cM3blqRU1wF/B5wBrKtro3UF6DbAXwDvBB5d0zYlqW43A38N/AOwcdSN1RGgfwx8ENi/hm1JUhOuB94CfGOUjYwSoCuAU4ETR9kBSWrR+cCrCDXTaKkBegTwRWD3xPUlqSvuAF4M/CB2xUWRr18AvA34DLBj7JtJUgctB/4M2ARcHLNiTA10MfAx4BUxbyBJY+TzwMup2MBUNUC3B74GPCdxpyRpXHwbOB54aL4XVgnQZcC3CPc9JakE/4cwGGjOPqML59nIMkIr1RH17JMkjYUjgS8T+rjPaq5GpEXAOXjZLqlMBwJ7AOelrHw6MFHTcinw7PRySFJlRwJXUl9+vTZ2B15Z0xtfAxxH/WPuJWkuiwnBdyej59gGIiZFOpTQ+jTKG94FvHqyEJLUlhXAR4EtjJZp1xN6I81pW+CqEd/oa8CuIxZakup0BHAjo2Xbx+d7k3eMsPFNwMrRyylJWexKGGmUmnFbgN+dbeN7A2sSN7wOeEGNBZWkHJYC55Ieoj+cbcNnJW5wM6GhSJLGwVLgn0gP0WNmbvBQQhCmbOxNWYooSfnsCFxLWub9ZObGUqu052MXJUnj6Ymk9zg6emojT03cwF3Y2i5pvP0lafl3ydQGLkzcwGtyl0ySMltC+qX8H5C44mrsJC+pH44lLQf/mcQV39hIsSQpvwWEYecpWRi9wnrC8ChJ6ovU+T+iVzi/oQJJUlN2IlQOo/JwvgmVh7m0jr2VpA65D7godqWUAL0lYR1J6rrvxq5ggEpScEXsCikBel/COpLUdT+LXSElQOd91KckjaF7YldICdC1CetIUtdNECZVqiwlQOd8TrIkjbFNMS+2BipJ0zbGvNgAlaRp2Wug6xPWkaRxkD1Ao6q4kjRGsgfoloR1JGkcZA3QqCZ+SRozBqgkJTJAJSmRASpJiQxQSUpkgEpSoqxj4Q1QSX02EfNiA1SSpmUNUDvRS+oza6CSlMgAlaREBqgkJTJAJSmRASpJiQxQSUpkgEpSIgNUkhIZoJKUyACVpEQGqCQlMkAlKZEBKkmJDFBJSuR0dpKUKCrjFkduPCqdpQiLgX2BvYGdgQWTf//g5HILcDOwro2dUzGiMs4AVRsWAAcBh08uTwEeB2xTYd1fAz8HfgZcCvwIuCvPbqpABqg66ZHAc4GjgaOAXRO3s9fkcvTk/28BrgIumlwMVI0iOuMmIpZv17ab6ruFwO8B7wb+ldAAGXOspS6bgSuBDwN/AqzIXVD1yreIO96iXvyt5sqhMbQ9cAxwBuF+ZROBOd+yCbgMOBk4jOl7q9Iw55MxQM9vrhwaE/sBK4ELgA20H5jzLasJAX88IfClQedhgCqjJcBzgI8RGnTaDsRRljWEE+ZVhNZ/6VwyBuh5zZVDHbKMcGl+FnAP7QdfruV64DRCI1eVHgHqHwNUtXg08Grge8B62g+3ppc7CT8YLwCWj/hZanycQ8YA/WZz5VALpu5nXkzoHtR2iHVlWUu4x7sS2DP509U4yBqg5zZXDjVgIaFl+mTgGtoPqnFYNjPdqv+E2A9cnfd1DFDNYTvCPb7TCMMj2w6kcV+m7ps+nfi5JdQ9X8MA1Qy7Ai8DvkFoeW47dPq63Ax8nDDiattK34y65mwivnOHcvbX/sCxk8vhwKJ2d2devwZ+CPwbcAVwLXAHsBR4PPAk4BnA04ADW9rH+ewJvHJyuR/4LqHS8W3g3hb3S9VFZ1zML+w5te2mcjgMeC9hoo22a2PzLb8FvgScSAjIGLsBfwqcyXj0Rd0AfB94LWEcv7rrK8R9twboGFsMHAl8BLiJ9oNiruUewi2ENwCHUu+QyidMbvc84IEOlHWuZQthboCTiP/hUH5ZA/TrzZVDs9iO6fHmt9F+IMy1DHZMX5LjwxhiEaEmfhLjMbx0FXAqoRHKcfrti7oHSuSLv9ZcOTRgF+AEwq9jl2tYU/0lT6I79yl3Jox7P4Pu9zpYjS36bTNAe2JfxmOSjtsII3aOB3bI8UHUaKrf60mEwQJNTbGXstxO+FyPwWGlTcoaoF9trhxFOoTpk7urI4EGO5KP+/RwjyQEf9fH+N/F9I+Uw0rzMkDHyGLg2YTLttW0f6LOtjxIuPp4KeF2Qh8tBo4A/pYww33bn/lsy33AFzFMc8kaoGc3V47eWgYcB3yWULNo+4ScbbkN+CTwfEJfzNLsQ+h29F3Cg+za/j6GLQ8RejacgDPv18UA7aCpkUDnEg76tk+82ZZrCS3CT8NGjEE7AC8EPkPo3N/29zRsmepr+ipg9yyfQhmyBuhXmivH2JtqOT+P7jYCDd7PPDjLp9A/gxOwXEb73+F83+sBOT6EHssaoF9urhxjaU/gdcA/EZ7F0/aJNGx5iBDq/x14VJ6PoSiPA94EXAhspP3vd9hyOfAOnD2qiqwB+qXmyjE2HsN0d6OunkB3Ea4eTqD7XY3G2XK6P3P/KpyKby4GaAP2Bd4MXEJ3uxvdRHi077Po/kQifbQNYZjt6cCvaP94GLb8FHg7oRatwADN5NGEPpo/of0Df7blF8DfEJ7HPs79M/tmAd2f6OVywvH92EyfwbjIGqBfbK4cnbCE0OXoW3T3nuaVwLsJE3RoPOxPuIL5Ed08ri4lTM7S1z6/c8kaoP/YXDlatQ3hfuENtH8wD1um7mMdlKn8ak6X5zlYT2hwPJ4w0KAEX8UAHclBhIBq++AdXDYBFwGvJzRaqZ+WE54CehbdG2RxMWX02shaA/1Cc+VoxZPpTuvpeuA7wCsIY7ZVlsWEaQD/nu5MW3gN/Q9RAzTRwbQ/yuQhwpyrLwEekbe4GiMLgWcS5kxou0X/CmD7vMVtVdZL+M83V45G7Ud4IFgbB+R9hFsjL8TJITS/BcBTCJOeXE87x+w59HeorwEaaSfg/9HsAXgn8A/A8/DpjRrNkwjdo66m2WP4LU0UrgVZA/RzzZWjMZ+imQPuZuCjhM7VpbRoqlkHA++kmb6m6wltBn2TNUDPaq4cjXgcefvh3UK4b+XsRmraocBfA9eR7/j+Gc0966opWQP0s82VoxHvof6D6m6mH8VgTVNdcAih33COfs2nNFeMRhigEa6gnoPoPkJoHo3Pr1F3LSTMuv9xwn34Oo79DYT7sH1hgFa0PaNdvq8nPObiOMqcsV3jbRvCVdI3Gf021k8b3vecsgboZxorRn6Hk3aw/IIwTnjX5ndZymJPQkv+/aSHaF8mr8kaoJ9urhzZvZT4g+QcnBpO/bUH6Q837EsjaVSA9qXQKfZPWOfThMclSH10K/D+xHX7UgONEhugE1n2oh17JaxzVe17IXXLD9regZZF/RCUXANNuYd5W+17IXXLdYQG0lh9yZKoSmLJNdDdIl9/L2GyD6nPJgiX8rH6cgmftQbalw8J4mfbTjmopHF0e8I6fcqGyvpS7U4RO/PR3Vn2QuqetQnrGKCFiZ3TcF2WvZC6J+VYN0ALs13k6w1QlcIArajUAF1KfIf4lJZJaRwZoBWV2oi0LGEda6AqRckBaj/QClIenWENVKWwEakia6DVGaAqhR3pK+pLoWMZoNLsUuZ76EvlKkqpAZpyCe8kIipFn0YcxnIkUgUpT8Is+aBSWbYkrNOXypiX8BWkPKso5aCSNF5sha8gZVJka6AqRcqx3per0ygGaHUGqEphgFZU6j1QL+Gl2RmgFZX63PKu1ryPAZ6f+T3OB86LeH0T+5SiL+WIFVvuFCU3IkUpNUC7WgM9DDgx83vcStwJ2MQ+pehLOWLFljuFNdCKvISvznugKoUBWlGR1W7SGpG8B6pSlBygdmOqwFZ4aXYlB2iUUi/hUwJUKkVKgPalMuZIpAoMUKlefalcRSk1QEvtfSBpbk4mUoE1UKlefcmGKKXWQEstt5RLkedUkYWm3HJLqpFBIqkORV7CxzamFPkhNehsYFXm97g68vVN7FOKvpQjVmy5m1JkZazU1uiu/hCsonsneRf3KUVfytFVXT2nsiryV0NS7QzQCor8kCTNq8hsKLUGWuSXLWXUl3PKyUQkNa4vARrFS3hJdSgyG0qtgRb5ZUsZFXlOlRqgkuplgFZQ5IckaV5FZkOpNdAiv2wpoyLPqVIDVFK9DNAKivyQJM2ryMpYkYWWVLsiK1elBmiRX7aUUZHnlJfwkupQZDaUWgOVVK++BGhUOZxQubrjgYPb3gmpAYckrNOXyljUc+GdULm6gzFApb5zNiZJjSvy6rTUAC3yy5YyKvKc8h5odWdPLlLfHT+5xOhLZcx7oJlcjQGqMqQ0IvWF90ArKLkmLeVQ5DllR3pJdSiyMlZkoSXVrsjKVakBWuSXLWVU5DnlJbykOhSZDaXWQCXVywAtSJFftpRRX84puzFJalxfAjSK90Al1aHIbCi1Blrkly1lVOQ5VWqASqqXAVpBkR+SpHkVmQ2l1kCL/LKljIo8p0oNUEn1KjJLvISXVIcis8EJlbslZSJbVZMyIXYXv4+uTuxdZDY4oXK3HEL3Tti+SJkQu4vfR1cn9i4yQIu8b0GhX7aUUZHnlPdAJSmRASpJibyEl6RpWWdjMngkDVNkNpRaA5VUr6jnqXeYNVBJSmSAVtCXX0upK/qSDc5IL0lNKLUGKknDRGVcqWPhu3oJfzawqu2d6KmrE9bp4veRUo4m9CUbojgWvltW0b0TtmR+H9V1tVISy0YkSWpCqQHal19LSfWyFV5S4/pSuYpSag1UkobxHmgFXsJLGpmX8JI0zRqoJCUyQCvwEl7SyLyEl1SHvlSurIFKUhNKDVAv4SUNY0d6SWpCqTVQSRrGe6AVeAkvaWRewkvSNCdUriClBvrfgMPr3hGpg/ZLWKcv2RCl1ABNsR9pB5ak8WErvCQ1odRGJEkaxnugFaTcA/0ccFbdOyJ10AmEe/4x+pINUXyoXHU3AD9oeyekBjw9YZ2+dA20H6ikxvUlGwzQCvryaympRbbCS9I0a6CS1IRSA9RLeEnD2JFekppQag1UkobxHmgFXsJL9epLNkTxEl6SplkDlaREBmgFW9reAaln+pINUbf3vISXVIe+tCtEZWKpNdDNbe+ApPFXaoB6CS9pGDvSV2ANVKpXXypXUUqdULmrAZoykW1uKRNJx5ajiffoCyf27pBSA7SrN7z3A45qeydm+HHCOrHlaOI9+iLls1J1XsJX0NUaqKR22Q+0AhuRJI2s1AC1BirVqy/ZEKXUALUGKtWrL+eU90ArsAYq1asvARrFGqikOvTlnLIRqYK+fNlSDinneV/OKS/hK0j5svvy4yHNJyUXDNC6N95hKfdAS/2xUXlKroFGKTVArYFKsys5QKPKHjuUsy+6WgM9C7i4gfeJcUPCOrHlaOI9+iLls4qVEqBdHR6dValj4btaA72BZk6Q3JooR18+qy5KqSz0pWug90Ar6GqASl1gDbSiUhtGUgK01M9K5fEeaEWl1kBTLjf6UnZpPiUHaJRSA9RLeGl2JQeoHekr6GorvNQFJXekj1JqDXRjwjqldvlSeUqugUYpNUDXJ6yzpPa9kLpp24R1+hKgWZ8L3xcpAZpyUEnjqOQAjWINtDoDVKVYmrDOptr3YgwYoNUZoCpFSoCmnFNdZCt8BQaoNDsDtCJroNUZoCpFyrHelwCNUmqAriF+7G7Kr7I0jkqugUYpNUA3Aw9GrvOIHDsiddCOCev0JUC9B1rRfZGv3y3LXkjds3vCOutq34t2eA+0otgA3QVYlGNHpA7ZFtg5Yb2U0X1jr+Qa6D2Rr19ECFGpzw4kvqJwC3akr6RPNdBfJ6yzb907IXXMkQnrXFX7XrQn6yV8n2qsqxPWeW7dOyF1yG7A/0hY75K6d2ScTEQsd7a0jzmcQFzZJwjD1b4DvAjYrvldlrLZH/gl8efEBPD0FvY3l+uJK3vUi+9urhzZ7Um4b5NywEwA9wKfBI7Cqe40npYCRwNnAA+Qdh78hn41rmYN0NiGl647j/QAHVzuIITpc4BtGi2BFGcF8BLgbNJDc3B5X7O7n90NZAzQ2K4/XfdEQqf6OkJ0sJZ+FnAMziGqbtgbOJFQYVhPfcf6OuDRDZajCTeSMUAfaK4cjTmbegN0Zph+Gng+DgVVs54EnAxcQb7j+7SmCtOgrAG6prlyNGZfwq2JXAfZ4I/PV4A/BXZqomAqymJCF6SPEHqY5D6eb6Wfw5tXkzFA1zZWjGa9kPwH3OCyntCafyJpw+YkgB2A44HPE652mjp+txBuUfXRajIGaF/Guw7zUZoN0allM3Ax8BZCVxJpLnsQfni/TTgf2zhm/2f2UrbnJjIG6IbmytG4RYT7lW0ckIPLKuBUQt+6Po38Urr9gJWEH9q6Gz1jlzPp14CamX5FxgDt+3NPFgKfoP0QnVpuBD4IPJN+9bXT3BYChwN/S3rn9hzLh+h3eELmAN3cXDlaswB4I+1dHs223A58Cngetuj30XaE+4qfAn5L+8fb4PJL4MX5it4pWQN0orlytO4A4BzCNF1tH8Azl/uBLxOGlNqiP752AV4KfJ3ppyR0ZVkLfAn4Q/pf6xz0azIHaEkfJoQJFl5PmDCh7YN62DLYov+oTJ+B6rMf8CbgIsItsbaPn8FlM3Ah4Vhakan8XZc9QEse9/044G3AZbR/sM92AlwMvBlb9LtiAfC7wHuBn9H+MTJz2UKoHKwkzA9Rut+QOUAdnhg8ltD16BJGm5Qk53Il8B7gMGzRb9ISwrwIHyW+RtPU8lPgrwjHsaZlD1Af77u1vQi/4D+i/W4msy2/Ak4nzB7lhCf1W0FoaPkyYc6Itr/vYcu1wCnAEzJ9Bn1wM5kD1Hkw57YH8GrgAkK/2bZPmmHL3YTRK8cTRrMozb6EH84f0M3GxgnCbPGnECbO0fxuIXOALmusKONvBSGkziK0nLd9Mg1bNhLum66kfzPr5HAIYZKOy+jurZtVk/t4cJZPoN9uJXOAbt9YUfplKeHy+TTiv6Q2Tr7DsnwK42dbpr+3rt7PHPzeDsryKZQje4Du2FhR+msRYajmqXRrpMnM5XpCcJQ26/7OTF85dPV+5mBoPj7Lp1Cm28gcoH2cwqptTya0lnexm8vUcithmOvR9HMk1P6EB6pdRPf6Z04tm4AfAm8AHpPlU1D2AC21g21T9iXcj7yA7jZMrCHMbn4iYaDBuBq8n9n2Zzrbso5wLKwkNFAqr9hhtNFf6C6NFUW7Ep4eeh7dG5s/tWwiNEKdRPcvJZcTxpufQXx/vyaXqR+oE3CobtOyB+gjGyuKBi0jnPxnEZ4I2vZJPtvSten4pqaCu4B6nwdU93In08/Ssq91e24nc4A63rp92wJ/RKhJxd6zaXK5gTAF2hE0Nx3fjsCxwMdo5tEWoyw3Ej4fpyvsjuwB6iMoumUhocvRycA1tB8Ksy13EZ4JdQL1dt5fNFn+k+h+LXOC6Z4NXamh6+HuIHOA2tm6254IvBP4Cd3t6P0QcC7wcuJvCS0j1NjeDpxPdwcoTC2bgH8G3kqYjEbdFhWgCyb/EGMvwg14dd9jCJezxxIuo7s4Bn4zYUKWcwldiK4iNJhtS2iwPGhyOZgwq9GT6WY5Bj1EqA1/k9AYdEe7u6MIdxAabyuL/UXdu8adVXOmWqC73gg1rstUI5DzC4y3u4j73qMPlH0aK4pyWUy4B3ca3e7O0/Wl1JFafZY9QJ0/sH/GoUN5F5bNk5/RyThXQF/dTeYAdabzfnss3R8J1eSylumRQM7Y3n/ZA7Tro01Un10I3Y6+AjxA+2HW1JKry5W67x4yB+iBjRVFXbIcOA74LPH3icZh+QXwAezUXrrsAep8gxqcju8XtB9+KcvURNIn4cTDmhbbQyX6wPNg00yHEILoYrrbeX+CMOx1qquR89pqmNj5X6MPwkMbK4rG0d6Eae7Oo/1hlZt4eKu5Qyc1n+wB+h8aK4rG3QrgJcDZNNcI9Vvgc8CLCDPLSzGyB+h/bKwo6pPBZ0LFPjp2ruV2Qm33JKxlanRRcyukjIV/MnBFXXurIi0EngL8CfB7hBm+9mDux8VsIDzU7UbgSuBywuX5dcQfw9Js7iei61rK8LOFCetIg7YQJhC5ZMi/LWA6SB9BmJhjA+HSaksje6eSRV3BGKDqmglCXzwG/is1JSpAU8LQAJUk0sLQWWck9VX2GmjXJ7OVpEZYA5WkadZAJakJBqgkTbMGKkmJDFBJaoIBKknTstdAbYWXJKyBStIg74FKUhMMUElKlBKg29W+F5LUDdkv4ZclrCNJ48AAlaQmpATo8tr3QpK6wRqoJCXKHqDWQCUJa6CSNCh7DXSnhHUkaRxEPSI7JUD3SFhHkrpuCQ3UQPeIfRNJGgMvSVlpImHZuYadlaSuWABcRWQWpj7j/XGj7q0kdcjzgENiV0oN0KMS15OkLvrL1BVTLuFXAYtG219J6oT/RFoOTjDCin/eQMEkKbcf0EKA/gantpM03v6Q9AwcKUAngDfnL58kZbEtCS3v1Biga4DH5y6lJGXwPkbLv+gAXTPk735Iemu+JLXh94GNbJ1nDwz5u9oC9GPAZUP+fmXeskpSbR4J3MTWOfZvwFuG/H1tAfpBYH/gvhl/vwE4ImOBJakOi4DvsXW23QDsDrxmyL/VFqAfmtyJFw35t9uBx2YqtCSNagHwSbbOrjuAAyZf89oh/15rDXTKqUP+/efAipoLLUl1+BuGt+s8deA1rx/ymiwBuhA4d8hrrgB2q7HQkjSqd7B1Vm0EjpnxupVDXpclQAF2AH425HVXA3vWUGhJGsUC4H+xdUZtAV425PVvGvLabAEKsA+weshrVxO6CkhSG5YAZzI8PF81yzpvHvL6rAEKsC9w45DXryfcU5CkJu0B/Jjh4TlXJr11yDrZA3Rqh4f1EZ0g3Cvdp3LRJSnds4Gb2TqHNgAvn2fdk4asV1uA/u953nw58KVZ1l0DvAtYOl/pJSnBDoTBPlvYOn/uAv5zhW28bci6jQXolFcDD82yjdXAGycLK0mjWgy8gjBD3LDMuZLpfp7zGdZa33iAQphk5IdzbOte4P0kTKMvSYTZlF4GXMvwjNlEmDBkScQ23zXLthoPUAhdCF4MXD/Pdq8G3kNotd8l8j0klWVnwqX2LcyeKVcSZpqP9e45trnVsniUUlQwAfwj8FVCt4F3Egbyz/QEQvK/a/L/HyQMDb0XWEu4HXDv5H/XD6x3z4ztPED41ZmyFlg38P+bJl8zaOY25rJucpt12AzcX9O2SvcIxu9R28uJqxl1wRLCfrfpGYSGoNn242ZCjnyWcC80VtTMcrkDdMoG4CPAZwj9rN5AOOhns/3kIklV3EG4Qj6dUNFKFRWgsfN4TkS+fqb7CVXkvQgNSbeOuD1JZbsDOIXwqPX3M1p4QuYArcuDwGmE2ZteSWg9k6Sqbgf+ijCI52Tqux3WyUv42awHPkG4X/EyQgdYSZrLj4BP8fD2jbqMVYBOWQ98fHKRpLZ0+h6oJHXZWNwDlaQuMkAlKZEBKkmJDFBJSmSASlKiqCHBtsJL0jRroJKUyACVpEQGqCQlMkAlKZEBKkmJHAsvSYmsgUpSIgNUkhIZoJKUyACVpEQGqCQlyhqg4/bsbUmKYYBKUiIv4SUpkTVQSUpkgEpSIgNUkhJFZeLiyI13IUAXAI8F9gceAWxDKPR6YA1wE3AtsLmtHZQ0tqLbhSYilg/Xtpvx9gFOB+4dsl8zl/uBz0+uI0lVXUhcJka9+LTmyvEwf0y14Jy53As8u4X9lTSeLiIiY8bhHugLgHOAnRLW3Qn4NnB8rXskqa961Q/0GYRL8VH2c1vgC8BzatkjSX3Wm1b4nYCzgaU1bGsbQojuXsO2JPVXbwL0FOBRNW5vV+D9NW5PUv9EZVxXA3Qf4LUZtvtnhO5PkjRML2qgL2b+PqpXAa8BDptcXgusmmedRcCfj7pzknoraz/Qv69tN+d25Rz78AAhLIcVdCHweuDBOda/PPO+Sxpfl5OxH+gZDRRgCbBplvf/DfA7FbbxpMnXDtvGJkLLvCTNdAUZ+4HGDv1MsS/hUnum24BnAT+tsI0rJl/72yH/tmjyPSRppqz3QJsI0GEd5jcCxwDXR2znesIIpo1D/m3HhP2S1H9jH6D3Dvm79wGXJWzrUuDUIX+/IWFbkvovayPSl2vbzdntBGwZeM97gB1G2N6OPHwc/RZCn1BJmukaxvwe6H2Ee5hTvktoeU91/+Q2plwH3DnC9iT1V9ZL+G0iX5/qOwN//lUN2xvcxiU1bE9SP439PVCATxImSIZ6Rg49fuDPX61he5L6Kes90O/XtpvzO23yPe9jtAlFljHdsf5qhneRkiSAG8nYkf7C5srBLsANk+/7yhG28zqmG4+eW8N+Seqvm8gYoD9qrhwAHEpoBPoVaX03dwJuJuz7B2rcL0n99GsyBui/NFeOf/cHhEvwlGGkZxL2+0y6P3m0pPZNVbiyBOilzZXjYZ5C6Hp0dMQ6Lyc8pXNllj2S1Ee3kjFAf95cObZyAGFW+So1yScDn8CnckqK81syBmjMWPQ2rWh7BySNpTuIyMTY+4Lb1befWd3T9g5IGktZO9Ivi3y9JI0TA1SSEmUfC9/UcE5JalrWAAVroZL6ywCVpETZA3SUyY0lqcuyB6izuUvqKwNUkhJlD9B9E9aRpK7bhgYC9LCEdSSp696UslLMWPgJwgPebEiS1Cd7M/3kimyTiUwtb2ymTJLUiPOIz8EHIdQoY1e8G3hkI8WSpLyOI60i+QGA9yau/LkmSiZJGe37RcYNAAACzElEQVRI/GM8JoCHgN0hPDfozoQNTAAvzV8+ScrmLNKy78ODG3lL4kYeBJ6UsXCSlMt/JS331gKPHtzQUsKTL1M2djvw+GxFlKT6/Q5h4vWUzPu7YRv8i8SNTQC/BPaqvYiSVL+DiXx0x8CyBnjMsI0uBP41caMTwGqsiUrqtmcBt5Gec6fMtfHfBzaPsPHbgGfWVFBJqssi4G3AJtLz7WZg+/ne6IwR3mAC2EAYEpUyTFSS6vYM4KeMlmsTwDFV3mw5cHUNb/Zj4NARCi1JozgA+BKwhdHz7OMxb/xEQkfRUd90M/B14I+AAwnhLEk57Q18CtjI6Bk2AaxiluxaMMdOvAw4c+SibG0tsI7Qh3QjcD8haAef5T71b4NmPut9A6FFbFCV9TZOvi7GesIPSoypcsZ4aPK9mnQv4SDpmgnCvklVPQp4O/BKYNuatnk78FTgxmH/OFeAArwbOLmmHZHUDWsIFZC+WQ4sqXF764AjgX+Z7QXzBSjA6cDr6tojSRoDG4DjgW/O9aJFFTb0fULHUYdsSirBesIMTefP98IqATpBmCtve+Bpo+2XJHXafYTw/G6VF1cJ0CnfJ9w7ORL7eErqnxuAo4D/W3WFKvdAZzoC+CKTc+FJUg98D3gJYWrPylJqkhcR7odekLCuJHXJWmAloa96VHhC3CX8oAcJM9JfBzwdO8hLGj8XAP8F+FbqBka9l/kF4CDgI4Qkl6SuuxY4FngOcM0oG0q5Bzqb3YG3EkYBWCOV1DUXAR8idE/aUscG6wzQKTsBLwROIMyCkuM9JGkumwlzFP8CuBD4BnB93W+SO9x2I/Qf3ZFwv3UhIWAhjFVdNvnnHYDFk39eCmw3xzbn+/ftJl8zm2VUHyc7uF91m68co1hM2PdcVmTcds7PXMHM+SFyrxcz38LgHBez/XlqbooNhLk07p98j6k/30MIy+zDVf8/pbd/UgBL4LEAAAAASUVORK5CYII=;fontStyle=2;fontFamily=Georgia;fontSize=16;" vertex="1" parent="1">
          <mxGeometry x="800" y="370" width="100" height="129" as="geometry" />
        </mxCell>
        <mxCell id="JUDbLiN2Od7CmGKuxI0P-10" value="&lt;font size=&quot;1&quot; face=&quot;Georgia&quot;&gt;&lt;i style=&quot;font-size: 20px;&quot;&gt;PR&lt;/i&gt;&lt;/font&gt;" style="text;html=1;align=center;verticalAlign=middle;resizable=0;points=[];autosize=1;strokeColor=none;fillColor=none;" vertex="1" parent="1">
          <mxGeometry x="215" y="50" width="50" height="40" as="geometry" />
        </mxCell>
        <mxCell id="JUDbLiN2Od7CmGKuxI0P-12" style="edgeStyle=orthogonalEdgeStyle;rounded=0;orthogonalLoop=1;jettySize=auto;html=1;entryX=1;entryY=0.5;entryDx=0;entryDy=0;" edge="1" parent="1" source="JUDbLiN2Od7CmGKuxI0P-11" target="JUDbLiN2Od7CmGKuxI0P-8">
          <mxGeometry relative="1" as="geometry" />
        </mxCell>
        <mxCell id="JUDbLiN2Od7CmGKuxI0P-11" value="Heavy Forwarder" style="shape=image;verticalLabelPosition=bottom;verticalAlign=top;imageAspect=0;image=data:image/png,iVBORw0KGgoAAAANSUhEUgAAAVEAAAG2CAYAAADGN7V4AAAACXBIWXMAAA7DAAAOwwHHb6hkAAAAGXRFWHRTb2Z0d2FyZQB3d3cuaW5rc2NhcGUub3Jnm+48GgAAIABJREFUeJzt3XeYJVW57/Fvd09PYiIMEpUcBRUFRTwgURQkKmDEeNQrHrMier33+JgueriKHjkH4zkqD4gJDEgSMIECopJHkjAMMDDMDAyTw75/vL3vND27u/da76pVYf8+z1MPw0xX7beqZ369qmqFPvLbAdgC2BSYDWwCzAL6gIlD/w8wHZgw9OsBYMYox5sCTB7lz2YC/R1+f8LQ8ccyY+hzc8n9eamsBZaWXUSAZcDqTJ/1JLAu02ctjtxvJbAiwdesApYn+Jql2N8pgKeANUO/Hv59a/+6/XdvydDvrRrn2IXoK/j404ADgYOB/YB9sMAUEUltDRa8i4GFwP1D233ANcDtRXxoESG6PXACcDzwYmCwgM8QEQl1H/A14OskvHtKFaKTgFcBpwEHJDqmiEgRFgNfBM4iwaOdFCF6DHA29qxTRKQu7gLeDVzpOYgnRLcGvgO8zFOAiEiJWsCXgI+x4SVWkNgQPRT4PrBV5P4iIlVyI3AKcG/ojp26/4zng8AVKEBFpDn2Bf6EvQwPEhKifcCZ2MPYmPAVEamyOcDVwMkhO3Xbubsfe/55WmBRIiJ1MgE4EZgP/KWbHboJ0T6sb9Xb4+sSEamNfqzX0UPATeN9cTcheibwfmdRIiJ10gccBdwN3DLeF47lzdhtvIhIL1oDvBy4arQvGCtED8Q6oU5MVMwTWOfWR4BHsTGuK9gwucHwSQ6WYP23Oh1jfYffH22ih+GTGQxX9CQULewcekk/NuFL1ZVd51iT6eTQzeQ7RRrE5tTIYR/gI2yYyCjWImB/LL+6Ngd7sNpKsN0IvJbRZ1oSESlKO/y8OXYngeH/kwQfej/wGoqfKUpEZCzTgG/gz7RvdvuBpzo/aD1wDuXeMoiIjHQC9kjQk28njvchM7FnlrEf8ATWNUBEpIr2xHd7/wjjPNM+y3HwucDuiU5URKQoWwC3EZ91Z4524C2xN+QxB70cW+pDRKQOtsBmuo/Ju5WMMvXnZyIP+HX8XQhERHLbHlhAXO59Y+TBBrE1SUIP9CM0GYmI1NdLiLsDXw1sN/xAR0QcZCmaDk9E6u904lqj5ww/yJciDvAfhZ6WiEgeA8AfiXs2um37IJdHHODwos9MRCSTfbCh46E5eHb7AHMDd1yBlkIWkWb5LuEhuhxsWOaKwB1vzHNOIiLZbINNjBQUpP1Y/9DQyUHGnF9PRKSG5gP/N3SnfuI6yd8esY+ISNWdFbpDP3Fz+82L2EdEpOqWh+4QG6IPRewjItI4/cAmEfspREVEiA/Rh1MXIiJSRzG38yuxNYpERHpeTEv0iSIKERGpo5iW6JNFFCIiUkf9wKTAfdQSFREZ0k/4hMpqiYqIDIkJUbVERUSG9BM+G1Nwj34RkaaKaYmuLqIQEZE6UoiKiDgoREVEHGKeiSpERUSGqCUqIuKgEBURcYgJ0TVFFCIiUkcxIbqqiEJEROpIL5ZERBz0TFRExEEhKiLi0D+0hVCIiogM6Qf6AvdRiIqIDFGIiog4KERFRBwUoiIiDqEvlUAhKiLy/8W8nV9XRCEiInUUczvfKqIQEZE6UoiKiDjEhOj6IgoREakjtURFRBwUoiIiDrqdFxFxUEtURMRBISoi4qDbeRERB7VERUQcFKIiIg66nRcRcVBLVETEQSEqIuKg23kREQe1REVEHELXnAeFqDTPDGCgi69bXHQhUk+3Y8HY7bZzOWWKuB0AfBe4EXgQWEHY3/3T85csmQ0S9neiBXBn4A475jobkcTmAHMJ/0fS3tYDb8teteQUFaKhf6l2yHU2IgXYEXiE+CBdC5yYvWrJJSpE/x64w/aZTkakKPsCS4kP0uXAgdmrlhyiQvSuwB2eletsRAp0FLCG+CBdAjw3e9VStKgQvTtwh2fmOhuRgr2d+BBtAfPRnVnTRIXoPYE7bJvrbEQy+BS+IL0L2CJ71VKUqBC9N3CHrXOdjUgGfcC38AXp9cC03IVLIaJC9L7AHbbKdTYimQwAF+EL0l8Dk3IXLskpREUiTQNuwBek52FDqaW+okL0/sAdFKLSVHMI7/I3cvta9qolpagQfSBwB4WoNNlO+Drjt4CPZa9aUokK0XmBO+jFkjTdfsBTxIeohofWV1SIPhi4g0JUesHR+Drja3hoPUWF6PzAHRSi0iv+Gd9tvYaH1k9UiD4UuMM2uc5GpAI+jS9IlwDPy161xMoSohqxJL2kD/gOviB9ENgud+ESJSpEQ99EKkSl1wwAP8EXpBoeWg9RIbogcAeFqPSiKcDv8QXpDWh4aNVFheijgTsoRKVXbUb4cjojNw0PrbaoEH0scAdNhSe9bBvCR/mN3M5Hw0OrKipEFwbuoBCVXrcn8Di+INXw0GqKCtHQvwya2V4EXoRvVFMLOCN71TKeqBBdFLiDQlTEvBLfqKb12Oz6Uh3BIdqHhejsgA/ZHnsm1EQzsO4sZXkSWBe4T+qa12AtrLJNBDZJfMynsPNL6a3AN7H+pDHWAq8GLk5WkXgMAqtDdphA/De/aKcCewEzh7Z+YNaw/w5gAdLJNOxidDIdO+8q2g2bii3EtcCzE9awEjgBuDThMUNtir3FTj3S5+XAZYmP+W1gS+CzkftPwF40HQn8LlVRktcSwpqv22eq6x2BdTVh2zXiOt1aQB0rsMApwyz8kyOPth1ZYN1fcda2GNi7wPqkO1HPRJ8I3GH7TCcD9gaz7GDLuVUlRFuUE6QzgOsS1D7aVmSI9gMXOOvT6qHliwrRJwN32CHX2WC37D8MrK/OW5VCtIUF6SsiaooxDbudLfL6FhmiYM9xr3DWOBfYvOA6ZXRRIRraTWP7TCfTNgj8MrDGum5VC9EWsAo4JqKuEFOBqwo+jxbFhyjYM/cbnXXeMHQcyS8qRJcF7pCzJdo2BbgmsM46blUM0RbFBukk4JIM59AiT4iCtSTvdNaq4aHliArR5YE7lBGiYM/LinrhUJWtqiHaopggnQj8PFP9LfKFKMCOwMPOejU8NL8sIbpjrrPpYA7wt1HqasJW5RBtkfYZ6UTgZxlrb5E3RAH2IfzF7cjtK5lr7nXBIdpPeD/RMvuVLgQOx4JD8puMzauZIkjXYt3rmuwvWJ/bVY5j/AvwiTTlSFFWEpa8ZbZE2zYHbqH8lmPqreot0faW6tZ+APh+xrpzt0TbjsN+aMTWreGh+UTdzoeG6E65zmYcz6CcAClyq0uItkgbpOdnqrmsEAV41xh1dbOtBV6VvereExWiKwJ32DnX2XRhS/xvQau01SlEW6R7RjoIXJSh3jJDFPyL3q0ADspedW/J0hKtUoiCrVvjnW28KlvdQrRFuhbpRPzrGI23lR2iAF/Fdw5PYC+spBhZWqK75DobyWIK/lE2KVuknYJ0HTbg4gPAIdiEK5tTz36UA/hb3Q9RXlfDplOISpSqBel5w477FHBEguNWyRTgt/iu91zsvYCkleV2XiHaTFUK0j7sRcxlNPcZ4CzgZnzXW8ND01OIikuKIM0x1r4ptgbuw3e9r6KejzWqKkuIxrz8kPpQkOa1M7AA3/X+KeWuyNAkClFJYhLwCxSkuewHLMV3vc/JXnUzKUQlGQVpXodh18tzvf9n9qqbJ0uI7pbrbKR0CtK8Xod15/Jc7/dkr7pZFKKSnII0r/fgu9bt1UMlTlSIht5C7J7rbKQyFKR5fRH/tT48e9XNoBCVwihI8+kDvoPvWmt4aByFqBRKQZrPIP5lUxagft2hsoToHrnORipJQZrPVOAP+K713dgkPdIdhahkoSDNZzPgDnzX+m/YMFMZX5a383vmOhuptCnA5fj+ca8EjspdeA1tB8zHd62vxKYblLFlCdFn5zobqTwFaT57A4vxXWutHjq+LLfzaonKcKlu7Y/NXXgN7Q8sw3etv5a96nrJEqJqicpICtJ8jgHW4LvWp2evuj4UolIaBWk+/4zvOq8H3pK96nrIEqJ75TobqR0FaT7/C991Xk2aCbSbRiEqpVOQ5nM2vuu8DDgge9XVphCVSlCQ5tEPXIjvOi9EoxCHyxKie+c6G8lqAnAGNvnFjATHU/enPCYBV+O7zvcBW+UuvKKyhOhzcp2NZLMH8Hs2fI/vJc33WUGax0zgr/iu81+HjtPrFKLS0SAwe2jbGngB8ErgQ9iKmp3+DjwO7JvgsxWkeWyF/fDzXGctepcpRJ+b4UQ2A/4ScTJ132KWXrm1wHqWkObFQxWD9J+AM4FvAz/BAuTGoe124J5h2wJg0bDNO/v88O2khOe0C/Cos54L6e1RTY0JUbAg9d6i1G2rWoi2gCeBl0TUNVLVgvQlWDefsr/nKUMU0ix699XENdVJo0IUYA5wc2B9dd6qGKItmhuk73LWkmJLHaIAL8O/6N3HC6irDqJCNPSncc4QBdic3gnSqoZoC3gKODiivpGq1v3pU85avFsRIQrwGnyPHdYDbyuotirL0hJ9Xq6zGeYZwG2BddZxq3KItmhui9Tbad2zFRWiAB9w1rYGOLrA+qooS0u0jBAFC9KcgVHGVvUQXYy92U+hSi3SPuCbzlpityJDFOzlmae+5aT5wVkXWUK0zMWvtsQ/y3eVtyqH6BLspUVKVWqRTgB+7KwlZis6RPuA/3bW2EujmhofomDrxTT11r6qIboMOCiitm5UqUU6CFzsrCV0KzpEAQaAnzrrnAc8M0OtZeuJEAUL0tvJ+5c9x1bFEF0GHBJRV4gqBelE4GfOWkK2HCEK1uofPiotZrsVG7DRZFlC9Pm5zmYc2wJ3ke8ve46taiG6inzTpVUtSH/urKXbLVeIgvW99jY+fgNMzlhzbj0VomBBejf5w66orUohWsZqnFULUm8t3Ww5QxTs38z9zpovxh4RNFFUiIYuNVClEAV7TnMP5QVfyq0qIboWODmilhSqFKRTgCuctYy35Q5RsNUpHo+st739Z/aq88jSEk3VxUVkNFV6a99UB2LdlzzX+JPZqy5elpaoQlRyqFKLtKlSLHp3Wvaqi5UlRFNMjybSDQVp8U7FhnjGXt+1wInZqy6OQlQaR0FavE/iu77LsakFm0AhKo2kIC3el/Fd3yU0Y8L2LCGaeuifSDcUpMVKsejdg8CzcheemEJUGk1BWqyJ+HtF3AZsmrvwhLKE6AtznY1IBwrSYs0AbsJ3ff8ITM1deCIKUekJCtJibQ78Hd/1/Rk2M1bdKESlZyhIi7UT8Ai+6/v17FX7ZQnRF+U6G5FxKEiL9QJsNQPP9f3X3EU7KUSl5yhIi3UINoTWc33/JXvV8bKE6P65zkakSwrSYnkXvVsLvCp71XGiQnRt4A4KUakiBWmx3o3v2q7AJj2pOoWo9DQFabH+D75ru4T8S66HynI7/+JcZyM9ZQDYJcFxpgCX4fvHrmn0OusD/gvftZ2HTQxdVVlaogpRSW0A+B7WUklxp6MWaXEGgUvwXdsqr9WUJUQPyHU20hMGgPPY8PdrKXBwguMqSIszFbgW37W9BvseVY1CVGplkM5rvT9FmhVGFaTFmQPMxXdtz8ceEVSJQlRqYyJjr4W+DDgswedMwr9yp4K0sx3xj2r6bPaqx5blxdJLcp2NNFa3LcRlwOEJPk8vm4qzL/YIxnNt35m96tFlaYkqRMVjEjY5RUh4pVi6WS3S4hyKXZvY67oWOD571Z0pRKXSYlfxXAUcl+DzFaTFeR2+tZqWU42eP1lCtClrqUheU/Gt4b4KOCFBHQrS4pyB77o+Rpq+wh5ZQrQOQ7ekWjbBurR4/oG1gCeAzRLUo2ekxfl3fNd1Lmm+x7GCQ7QPC9GBgA85CPhduppHdRz2U2lT7C/91KH/Tsb+UU7EukfMGmX/fmDmKH82gM3gXTX7AfcE7nMtsHsBtaQ0EfueeazEWqKX+ssB7O/SRcDLHMdYh00VV3XvBi7I9FkD2FpNnmWUr8VeKK5IUlGYQWB16E6hLdGDEhU7no8G1tWEbdeI63RrBeouelsJvCLi2ownRYu0DtubUl2wLk0Gfuus+cdYQyi34JZoGUV264tYZ1zpbauwVs2vCjj2Cuyt8OUFHLuXrcSu61zHMU7EMqDy+qneiIG2FvBm0t2+Sf2sBk7GxmoXZQX2kugXBX5GL1qE3T086jjGB7FHEZVW5ZYo2D+iV5HnGaxUSztAf5bhs1YBr0ZBmtp9wCux7kuxzgaOSFNOMfqxFl/oPjktx1oKf8v8uVKe1cBJwMUZP3MVFtq6tU/rBuCthOdM2wTgh8DOySpKrOot0bYl2FtUzzMWqYc1wCnkaYGOpGekxfgBcJ1j/5nAuYlqSS4mRMt6hvoo1qy/t6TPl+K1A/SiEmtQkKb3UXwTF7WArySqJbmYF0uxzfIU5mFzTSpIm2cdcCo2s1PZ9LIpnZcDn3Me41PkfbQTLHQVvxTzPHo9CwvSsvvfpd56tZ/oWuC1EedetBRDRKuwvSn1henS7tijOE/tF5L37jdLP9EqdIl6AJtr8oGyCxG3tdjkFVXsE7wKe8GlW/twm2Et+dFGDXbjWuzupJWkooLU5cVSJ/dhU3DNK7sQibYWeAPW2qiqldgQZAVp9yZjz7V3chzjHuzZ9MokFRWoziEKdqEPBeaXXYgEWwe8BXtzW3Ur0TPSbvVjiw56Znt7HDgam9Wp8iZE7FOF2/nh7sYmKplcdiEJxExmcQBhE8hURV0m72hrT8U3vexCIizL+FlnYQMXYq3AJuGuVXfG0BdLKda9EZHm+SC+l0jr8M3+lELUfKKhIZpizRsRaZaTCM+Skdt7s1e9sagQDZ3SXyEqIsMdiN2GewK0KjM2ZQnRSk8GICJZ7YG9CPIE6IVU5yW3QlREstkK62roCdDfUq2XwllC1LOcgog0w3Tgz/gC9HZs+Z8qUYiKSOEGsZUGPAH6ELB95rq7kSVEj8x1NiJSOX3At/AF6DLgRbkL71KWLk4vz3U2IlI5/4ovQNdQzKKDqWRpiSpERXrTO/AF6HpslvsqU4iKSCGOxVqRnhD9ePaqw2UJ0So3xUUkvf2x55ieAP2P7FXHUYiKSFLPxpY/9gToRdRnkpwsIXpUrrMRkVJti0187gnQa6hWZ/rxKERFJInNsM7wngC9BZidu3CnLCF6dK6zEZFSTAF+jy9A5wHPzF14AlEhGrqDQlSkuQaAn+AL0IXYInV1lCVEX5nrbEQkqz7gm/gCdDm+NebLphAVkWifwxega7HF5epMISoiUf4HvgCtw2ikbmQJ0WNynY2IZHE81or0hOgZ2asuhkJURIIcjC0J7QnQuoxG6kaWED0219mISKH2BhbjC9A6jUbqhkJURLqyAzYxsidAr6Feo5G6ERyiEyI+pC9JqWObA1wC7Jzhs6pkP+CewH2uJX2fvGXACcCNiY/bjSlYP8WqTtqb2luAizN/5ubApdgaSbFuBo7DHgX0vNCfPsdlqmtb4O6I+uq87RpxnW4tqJYlwAsj6vGYCPw8Qe112k5KcuW6NxX7weupua6jkboR3BKNWaY0R0sU4EHgEMJbZpLGTOBy8gXpIPBD1IWuSIPAj4EXO47xOLbi77wkFTVAlUMU7Bt1GPCPjJ8pG8zEbvv2LfhzJgDnoeftRWqvjeSZVH059kPuziQVNURMiOZ2P/BSbH1ryW82cCXFtUj7ge+Q/7a213wBeKNj/3XA64E/pimnOeoQomBzGh6MgrQsRd3a9wHnAG9IfFx5utOADzv2b2HrK12UppzmCX2ofGI5ZQKwE/5JYqu8VenFUqdtEfCCiBo76QO+lrH2qm5Ft8BfR/iKviO3OqyNlEqjXix1cg9wKDC/xBp62WzgCtIE6URgtwTHkdEdgT0q8dxx/js2MYmMoi6388Pdjb21V5CWYzbwa/y39quwF0lXuyuSTl6AvYmf6DjGxcD705TTXHUMUYC7sCB9qOxCelSqZ6Ttt73XeAuSp9kJ+CUw3XGM3wCvwR4FyBjqdjs/nIK0XDOBy0gXpL91VyRgo5EuAbZwHONWbMSaRiN1oc4hCvB34HBgQdmF9KhZWD9S7zPSZdit/fXuinrbdOz7EfOCsu0fwJHYxCTShT7sDVOIk7GRJVUyhWZMhPAk4bdPM4ifRWca9txrn8j92xZjLzH+7DzOLKxP6mihvBy4ARu3/RDwKLB0WA2w4Roux567dms1Fua5LRv6bK+J2C384Y5jLAT+CZiboJ66GiTi+xG62ufJiYqVatgUuInqdH/aFPjLiGOvAz6D/cCQjfUD5+P7/i0D9s9deAVlWTJZIdo8m1GtIJ2DtTZbWGvylATHbLIv4fu+rUGr+LZlmU9UIdpMs7BbZW+QLsam9PPaHJuKr+4LnxXtdHzfr6asjZRKlpaoWgXNtRkb30qX2SKt0kvMKjqV8H+/I7emrI2USpaWqEK02arWIpXODscedXi+R+dkr7r6soToa3KdjZRGQVpt+2G9Ejzfm6atjZSKQlSSUZBW085Yv2jP9+RqmtElsAhZnom+NtfZSOkUpNWyNTYdpOd7cQv2fZXOsoTo63KdjVRCqpdNjwPPz1x7k8wE/orve3AfFsQyOoWoFEJBWq7J2CQtnmv/GJp6sBsKUSmMbu3LMYANs/Zc82XAAbkLr6ksIfr6XGcjlTMbBWluX8F3rVfjW5yu1yhEpXAK0nw+he8arwfelL3qelOIShYK0uK9E//1/WD2qusvS4hqZUYBBWmRjgPW4ruun89edTMoRCWr2dgkIQrSdA4GVuC7nt9D8w7EyhKib8x1NlILCtJ09saug+c6/hyYkLvwBlGISikUpH47Ag/ju35/BDbJXXjDRIXousAdTs11NlIrc/CPqGlhHfK9y5XUzTOwhRc91+1W7IeZ+GRpiSpEZTRqkYabjv+azQOelbvwhsoSom/KdTZSSwrS7k3EVuf0XKeFwB65C2+wLLfzb850MpLfKcA78M8zOQf4G/4gXUhzb+37gQvwXZ+ngBflLrzhFKISZXOevlrkdcA2zmMqSMem4ZzVlCVE35LrbKQwz8C605wMfB17mTPy+3wvsJPzc1IG6fOctVTJJ/Bdj/Wov3ZRgkO0yv3JXgpsh03DNhGbT7Efe+bWx9Mnlu0f+vNOBoFpo/zZZGBKimITORyb8zHEpcAu43zNDDbcok+nu36EOwC/Aw4D7gisqW3h0P6/Bp4TeQywvwO/x2Z093gzdk5lehvwaecxPgx8P0EtkkhoSzTX8qqfDayrCduuEdfp1oJrmof9MPNI1SL1bkc6z8PrWPzDOc/MXnVvyXI7nytE+7HRF2X/w8u5VTFEW1gfxi0iahsu1Vt7z1ZmiO6PvQjy1K/hnMULDtH+iA/J9U1cj00AfX2mz5PR7Qz8At9omMXAK4Cbk1RUL3sBl+C7fr/A3ke0klQkyfRT7W/KUuwf3i1lFyLsC3zZeYzHsOe+vRSk22HPrT2jia7Fup+tTVKRJFXllmjbIuw27O7Mnysbexv+hc56KUjnYAHq6S52G3AMsDxJRZJcTIiW4WHgCODBsgvpcX/Gvhde7SBt8h3GJtgt+O6OYzyA9QVdlKQiKUQdWqJt/8D+4T1S0uf3ukVY38RUj38ew7o/NTFIB4Ef4RtN9DgWoGo4VFw/9XrbNxebtDZFa0i6twKbbX1u4uO2g7RJt/Z92AAGz2ii5dj1ju2fKxnFvFgqO3TnYrf2j5ZcR69YB7wW6+xehKbd2n8R39DoNcCrgT8kqUayCO0n+o5yytzI7vgnsa3aVrV+oiuwf9A5bI61SIu8vkX3E/2os771aG6KskV1tg8dQfHOXGfThedgLZmywy/VVqUQfRjrIJ5T0UFaZIieSvi0kiO3DxVYn3Sn50IUbGKKhZQfgCm2MkN0PTAfG+f+IWy8fRmKDNKiQvQobFYlT21fKKg2CZNlApKyn4mO9FdgN0afgKRO5kXs83JsgpZQq4FlQ79eBzwZcYwiPAa8GP8w006KeCG5P3Ah9o8v1neB09OUI2UIbYm+q5wyRSpnF2xmKU8L9Bdodc4qyTJ2XkRsFNIV2Nyssa5Hwzlrr06d7UWqYibwS3xTBN6OzQuxbLwvlGpTS1QkzBTsFvy5jmPMx15GaThnA6glKtK9AWxG+X9yHONxbLDI/UkqktKpJSrSnT7gXOBExzHaw2c1nLNhQt/On1ZOmSKl+jy+t/CrsVt4qbaozvZrAnd4T66zEamI9+IL0PXYiCapviwjltQSlV5yHP7F5T6cvWqJlSVE1RKVXnEQ9hzTE6AazlkvClGRRPbEuiB5AvT76OVt3USNWGoFfoi6OEnTbQ38Ct/icldiy4uvT1KRVJZ+Soo83QxseeNnOY5xPXAC9kZeGk6d7UU2mAj8BN9opLuw1TmfSlKRVJ5aoiKmH3uGeZjjGPPR0jU9Ry1REXMWcJJj/yewzvQaztmDQjvbv6+cMkUK8xF8b+GX4xtPL9WRZcTS+3OdjUgGryF8scbh21rsJZI0g0JUJMDBwEriA3Q91o1JmiNLiH4g19mIFGgvYDG+2/iPZK9aiqYQFenCtsAD+AL0q9mrlhyyhOgHc52NSAE2xZbm8AToeah7YFNpoTqRMUwBLgb2cBzjSuAtaDinDNHYeeklL8buvB4ibkTRn4Dj0XBOGSZmvWuFqNTVVUPbcNOByUP/Hc8CtDqnjBAToiJNsnRoe6zsQqSe9ExURMRBY+dFRBzUEhURcVBLVETEQS1REREHtURFRBzUEhURcVBLVETEQS1REREHtURFRBzUEhURcVBLVETEQS1RERGHmPlERURkiG7nRUQcdDsvIuKglqiIiINaoiIiDmqJiog4qCUqIuKglqiIiINaoiIiDmqJiog4qCUqIuKglqiIiINaoiIiDpqARETEQbfzIiIOup0XEXFQS1RExEEtURERB7VERUQ2GAzdQS1REZEN3hC6Q0wXp0mhHyIiUgMDwIdjdlyJBWm320PAJv56RUQq5WTCsrC9BYdoC/hYnnMSEcmS+ufvAAAKD0lEQVTmRjKG6GJg0yynJSJSvJcRF6AtgBWRO34ux5mJiGRwNSWE6FPAVhlOTkSkSIcQH6CuEG0B3yv+/ERECvU7SgzRFnBo4acoIlKMV+PLvxbAsoAvXgesH/F7dwMzCj5REZHUpgL/IEGIPhXwxUuBf+vw+xcUeqoiIul9gY2z7L86/N64Ibo04IuXAROB6zv82TuLPFsRkYReit1ZD8+wO4HpRITokwFfvGKogJ2AJSP+bBX2lktEpMrmAPezcX49f+jPg0P0iYAvXjWskFM6/PkiYPfUZywikshE4DdsnF3Dx8yPbKGOG6IjW5RjbWtGFPSlDl9zH7BdqjMWEUmkn87PPH/F02e0W9Pha5KF6NoRRU0ArurwdfcDOyY5bRERvz7gHDbOqrnA7BFfu7rD140ZoosCvnh9h+I2Z+PnC+0W6Q6+8xYRcZuEDQwamVGP0fnxY2jfeR4P3KHTzPb70DmM5wG7RZ+6iIjPHDqPSFrMhhdJIy3v8PVjhujCwB0GRvng59M5kB8G9go+dRERnyOA+XQO0P3H2C+k73wLrEkbssNYa5A8d5TjPT50QiIiRZsJfIWNR1e2747Ha9SFdPtsATwauMN4y4PsBvy1w35rsLf5modURIrQh62R9DCds+svwDO7OE7Iy/YWwILAHaZ0UcQk4Gw6/yRYAnwba5lO7uJYIiLjOYjOIynb27l0nzchL9tbAI8E7jA14MSOpvOb+/a2Gvvp8A3gQ8BJ2LOKrdDSzCIyvt2AnzJ6xjyGzdQUIug9UR/W9N0y4AOmYw9euzUFeD9wxtC+IRZhD4EXDW1PYiOs1mPdEFZifVeXDn19N3/WtpSN+72ONHz/sXRzrCJMI2Kd7AaaSb2X/55Cve/KBihnJrfjgXcw+r+Bi7E5PRYEHvdRrOtm1x4irCUae7G2AP6T8NEA2rRp0xay3YsNS48VdHces+587E/8BcC7sDdj59O5476ISIzVwJXAa7EO9D9wHCsom/qAB4FtAvbZDLu19toL+BRwAnr+KSLdewxrbd6JDdu8HrgO6ySfQlAmTiBfS3SkW4FXYZ30P4KNLPDqA2YlOI5XP/acrmxlPasaaRB7fivNNvwdwho2vDsJ+fUK7N3HUuw9xhNDv34Yu5t9jI0nQkotqCUaE6KpW403YU1wkbLNop53RSF1Dw+ubpX14rQsQZk4IeID6vwWVGQsS8ouINLisgtomKCWaM4XSyIidVB4iNbxdkdEpFtqiYqIOChERUQcFKIiIg4KURERh6BMVIiKiDyd3s6LiDjodl5ExEEhKiLioBAVEXFQiIqIOChERUQcFKIiIg7q4iQi4hAcoqFrHQ0Efr2ISJ0Eh2gotURFpMk07FNEJBeFqIjI06klKiKSi97Oi4g8nVqiIiIOClERkVwmEN5PtGohOg3YFhgEFgHzyy1HRGquJ1qi+wJnA7cBTwJ3ADcDDwKPAN8FXlhadSJSZ6GZyHVDO3W7HZmq0ghHATeMUlen7cfANqVUKiJ1dTlhmci1gTu8ItupbDAL+EFgne1tIfDS/CWLSE1dRkDG1OF2/pnAH4CTI/ffDLgCODZZRSLSZI16JjoLuBTY03mcQeB84EXuikREhql6Z/tz8Qdo21TgImBGouOJSDMFt0RD5WqJHkn8LfxotgQ+kfiYItLDYuYTzRWiHy/ouO8Dtijo2CLSYyZQzWeiOwEHjvM19wMXAndj/UMnA7sCR2Bv40ebPHoScBzw9SSVikjTBE88fzVhXYZS32J38q4xPv9h4HjGDvM9GLuv1y+LKlxEau9KGtDFae9Rfv8G4HnYC6KxHkPcgT1T/bdR/nzX+NJEpOGCWqIxz0RzvJ3fusPvLQBOGPpvN1rAR+nc6twqsi4Rab6ghmI/sK7ID4jU6SfBRwmfXKQFvA14osPvi4h0EtwSXRP4ATlCdOGI/38YuCDyWAuwF1DDPRB5LBFpvuAQXRv4ATlC9LYR/38VsNpxvJEBfIfjWCLSbMG381UM0atH/P+dzuPdPOL/f+o8nog0VyNaojfx9OAMfeQw0rIRv/6Z83gi0lyFt0RzjZ0/c9ivt3Qea86wX38eWOo8nog0VyNaogDfA/409Ov9nMfad+i/dwNnOY8lIs3WmBBdB5wKLAYOAHZwHOskYAnWz3SlvzQRabBGdHFq+zsWfMux/p4xdgZeOXScWxPVJSLNNSnki6vcEm37DbYkyeuxlT1DfRJbm+mahDWJSHNNDvniOoQowO+AU4BjAvfbG/gM8PvkFYlIU00J+eIJVPft/EjXs3F/z/HcUkQhItJojWyJtumlkIgUqY8GPhMVEcllMoF32/2Et+4UoiLSVEGtULBAXB6xj4hIEwW9VAILxKci9hERaaLgbpT9PH1yjm6U9XZeRKRowSsBx4SoWqIi0lRRIarbeRERo5aoiIhDlhDVM1ERaargaTf7sSniQgRNEyUiUhOTgJfG7DiALQLX6nK7DZjor1dEpFKOp/scHL4BcF/gTmdkOCERkZx+RXiArmvvfE3gjsuBHQs/JRGRPPbEAjE0RH/YPsC5ETtfUvhpiYjkcRFxt/Lt9ds4IfIAJxd9ZiIiBTuUuPy7YvhBpmFdnUIP8ij+5YxFRMoyg/B3Qu3t8JEH+1rkgS5BfUdFpH76gPOIy73rOx1wZ2yC5pgDfjr9+YmIFOp/E5d3LewRaEc/dhz0tLTnJyJSmPcC64nLuj8xxt33PsS3RtcBp6c8SxGRAnyC+MZix2ehI33Z+QHfATZJcKIiIinNBH6EL98u6uaDpgPznB/0D+Boz9mKiCR0HPFv4dvbEmCbkA/0fFh7uxR4QeRJi4h4DGJZdgVp8uztnT5krK5JXwQ+7D8PWlgT+pPA3ATHE5HeMJMN8xfPYMMMctOBCUN/PmPEtimwA7AbsAvpJkv6PvDGTn8wVogOAL8EjkxUxFrgMsJXFxXJof0Ps9dMwdZa71YfMKvAz5hF9fqd3wLszyjZNV6xs7HX+bskLkpEpA7mAy8B7h/tC8Zb6mMxcBhwV8KiRETq4AnsBfmoAQrdrZc0DzgEPc8Ukd7xOPAy4G/jfWG3i87NBw4Gbo6vSUSkFuYBBzLK+PiRQlbufAQ4ABuwLyLSRDdiz0Dv6HaH0OWPlwFvAN4ErAjcV0Skyr4HHIS1RLsWu4b8d7G07qq5KyJSYQuAU4BTiWgcepY/fgT4NvAgdps/1XEsEZHc1gP/jY1qujH2IN415FvATcC3hn79bKxjrYhIlV2CtT7PxfloMvXIgGnAW4H3odVARaRaWtgozM8D16Y6aFHDqwawW/xjsaayRjyJSFnWAhcAZwK3pj54rjGquwPbYRMEzMQmBZg+7M+nApOG/f/sUY7Tzbjd8cZAjzeOdxBrUac28hxTmYjmb+3GWmBp2UVktrjsAjJbin2fh7sOOAubnrMQ/w/UCK+FKEWA0AAAAABJRU5ErkJggg==;fontFamily=Georgia;fontStyle=2;fontSize=16;" vertex="1" parent="1">
          <mxGeometry x="1020" y="370" width="100" height="129" as="geometry" />
        </mxCell>
        <mxCell id="JUDbLiN2Od7CmGKuxI0P-14" value="&lt;font size=&quot;1&quot; face=&quot;Georgia&quot;&gt;&lt;i style=&quot;font-size: 20px;&quot;&gt;DR&lt;/i&gt;&lt;/font&gt;" style="text;html=1;align=center;verticalAlign=middle;resizable=0;points=[];autosize=1;strokeColor=none;fillColor=none;" vertex="1" parent="1">
          <mxGeometry x="935" y="50" width="50" height="40" as="geometry" />
        </mxCell>
      </root>
    </mxGraphModel>
  </diagram>
</mxfile>
